<mxfile host="app.diagrams.net" modified="2023-05-27T14:06:11.273Z" agent="Mozilla/5.0 (Windows NT 10.0; Win64; x64) AppleWebKit/537.36 (KHTML, like Gecko) Chrome/113.0.0.0 Safari/537.36" etag="fKsES1xrio4V5wgtzQSi" version="21.3.4" type="github" pages="7">
  <diagram id="QJFoFRdLA_wdQQ7BlMZT" name="DIAGRAM CONTEXT">
    <mxGraphModel dx="1050" dy="1583" grid="1" gridSize="10" guides="1" tooltips="1" connect="1" arrows="1" fold="1" page="1" pageScale="1" pageWidth="850" pageHeight="1100" math="0" shadow="0">
      <root>
        <mxCell id="0" />
        <mxCell id="1" parent="0" />
        <mxCell id="sZfbujww4pzj3RsvAfMi-15" value="&lt;font style=&quot;font-size: 18px;&quot;&gt;SISTEM REKRUTMEN KARYAWAN&lt;/font&gt;" style="ellipse;whiteSpace=wrap;html=1;aspect=fixed;direction=south;" parent="1" vertex="1">
          <mxGeometry x="370" y="170" width="210" height="210" as="geometry" />
        </mxCell>
        <mxCell id="sZfbujww4pzj3RsvAfMi-22" value="PETUGAS SDM" style="rounded=0;whiteSpace=wrap;html=1;" parent="1" vertex="1">
          <mxGeometry x="415" y="-10" width="120" height="60" as="geometry" />
        </mxCell>
        <mxCell id="sZfbujww4pzj3RsvAfMi-24" value="PELAMAR" style="rounded=0;whiteSpace=wrap;html=1;" parent="1" vertex="1">
          <mxGeometry x="90" y="370" width="120" height="60" as="geometry" />
        </mxCell>
        <mxCell id="sZfbujww4pzj3RsvAfMi-31" value="SUPERUSER" style="rounded=0;whiteSpace=wrap;html=1;" parent="1" vertex="1">
          <mxGeometry x="720" y="370" width="120" height="60" as="geometry" />
        </mxCell>
      </root>
    </mxGraphModel>
  </diagram>
  <diagram id="mhl8xW_b9VT-jnaUSwGf" name="DFD 0">
    <mxGraphModel dx="2465" dy="743" grid="1" gridSize="10" guides="1" tooltips="1" connect="1" arrows="1" fold="1" page="1" pageScale="1" pageWidth="850" pageHeight="1100" math="0" shadow="0">
      <root>
        <mxCell id="0" />
        <mxCell id="1" parent="0" />
        <mxCell id="U07KT2BKH8Fez5uFZ1X3-13" value="data_user" style="edgeStyle=orthogonalEdgeStyle;rounded=0;orthogonalLoop=1;jettySize=auto;html=1;entryX=0.75;entryY=0;entryDx=0;entryDy=0;fontStyle=1" parent="1" source="OiqCpDL5XZ7efOoXQ-Gw-5" target="OiqCpDL5XZ7efOoXQ-Gw-21" edge="1">
          <mxGeometry relative="1" as="geometry">
            <Array as="points">
              <mxPoint x="-350" y="1221.94" />
            </Array>
          </mxGeometry>
        </mxCell>
        <mxCell id="U07KT2BKH8Fez5uFZ1X3-21" value="info_data_login" style="edgeStyle=orthogonalEdgeStyle;rounded=0;orthogonalLoop=1;jettySize=auto;html=1;fontStyle=1" parent="1" source="OiqCpDL5XZ7efOoXQ-Gw-5" target="OiqCpDL5XZ7efOoXQ-Gw-8" edge="1">
          <mxGeometry x="0.2355" relative="1" as="geometry">
            <mxPoint x="90" y="900" as="targetPoint" />
            <Array as="points">
              <mxPoint x="-200" y="1000" />
              <mxPoint x="160" y="1000" />
            </Array>
            <mxPoint as="offset" />
          </mxGeometry>
        </mxCell>
        <mxCell id="U07KT2BKH8Fez5uFZ1X3-23" value="info_data_login" style="edgeStyle=orthogonalEdgeStyle;rounded=0;orthogonalLoop=1;jettySize=auto;html=1;entryX=0.314;entryY=0.017;entryDx=0;entryDy=0;entryPerimeter=0;fontStyle=1" parent="1" source="OiqCpDL5XZ7efOoXQ-Gw-5" target="OiqCpDL5XZ7efOoXQ-Gw-10" edge="1">
          <mxGeometry x="0.6991" y="-1" relative="1" as="geometry">
            <mxPoint x="-60" y="570" as="targetPoint" />
            <Array as="points">
              <mxPoint x="-220" y="1150" />
              <mxPoint x="-340" y="1150" />
              <mxPoint x="-340" y="659" />
              <mxPoint x="68" y="659" />
            </Array>
            <mxPoint as="offset" />
          </mxGeometry>
        </mxCell>
        <mxCell id="4d8HZwbaE_h-RuxuQO1G-11" value="&lt;span style=&quot;color: rgb(0, 0, 0); font-family: Helvetica; font-size: 11px; font-style: normal; font-variant-ligatures: normal; font-variant-caps: normal; letter-spacing: normal; orphans: 2; text-align: center; text-indent: 0px; text-transform: none; widows: 2; word-spacing: 0px; -webkit-text-stroke-width: 0px; background-color: rgb(255, 255, 255); text-decoration-thickness: initial; text-decoration-style: initial; text-decoration-color: initial; float: none; display: inline !important;&quot;&gt;info_data_user&lt;/span&gt;" style="edgeStyle=orthogonalEdgeStyle;rounded=0;orthogonalLoop=1;jettySize=auto;html=1;entryX=0.082;entryY=0.998;entryDx=0;entryDy=0;entryPerimeter=0;fontStyle=1" parent="1" source="OiqCpDL5XZ7efOoXQ-Gw-5" target="OiqCpDL5XZ7efOoXQ-Gw-18" edge="1">
          <mxGeometry x="0.2441" relative="1" as="geometry">
            <mxPoint x="60" y="1215" as="targetPoint" />
            <Array as="points">
              <mxPoint x="-180" y="1280" />
              <mxPoint x="60" y="1280" />
              <mxPoint x="60" y="1230" />
              <mxPoint x="60" y="1230" />
            </Array>
            <mxPoint as="offset" />
          </mxGeometry>
        </mxCell>
        <mxCell id="OiqCpDL5XZ7efOoXQ-Gw-5" value="&lt;div&gt;P.1&lt;/div&gt;&lt;div&gt;Login&lt;br&gt;&lt;/div&gt;" style="ellipse;whiteSpace=wrap;html=1;aspect=fixed;fontStyle=1" parent="1" vertex="1">
          <mxGeometry x="-245" y="1165.94" width="90" height="90" as="geometry" />
        </mxCell>
        <mxCell id="U07KT2BKH8Fez5uFZ1X3-22" value="data_login" style="edgeStyle=orthogonalEdgeStyle;rounded=0;orthogonalLoop=1;jettySize=auto;html=1;fontStyle=1" parent="1" source="OiqCpDL5XZ7efOoXQ-Gw-8" target="OiqCpDL5XZ7efOoXQ-Gw-5" edge="1">
          <mxGeometry x="-0.0479" relative="1" as="geometry">
            <mxPoint x="-140" y="1250" as="targetPoint" />
            <Array as="points">
              <mxPoint x="170" y="1020" />
              <mxPoint x="-180" y="1020" />
            </Array>
            <mxPoint as="offset" />
          </mxGeometry>
        </mxCell>
        <mxCell id="cn8MfWAvpaozi-GXlUmm-3" value="data_biodata_lamaran" style="edgeStyle=orthogonalEdgeStyle;rounded=0;orthogonalLoop=1;jettySize=auto;html=1;fontStyle=1" edge="1" parent="1" source="OiqCpDL5XZ7efOoXQ-Gw-8" target="OiqCpDL5XZ7efOoXQ-Gw-46">
          <mxGeometry x="0.1696" relative="1" as="geometry">
            <Array as="points">
              <mxPoint x="200" y="840" />
            </Array>
            <mxPoint as="offset" />
          </mxGeometry>
        </mxCell>
        <mxCell id="cn8MfWAvpaozi-GXlUmm-4" value="data_formulir_lamaran" style="edgeStyle=orthogonalEdgeStyle;rounded=0;orthogonalLoop=1;jettySize=auto;html=1;entryX=1.001;entryY=0.457;entryDx=0;entryDy=0;entryPerimeter=0;fontStyle=1" edge="1" parent="1" source="OiqCpDL5XZ7efOoXQ-Gw-8" target="OiqCpDL5XZ7efOoXQ-Gw-46">
          <mxGeometry x="0.2506" y="1" relative="1" as="geometry">
            <Array as="points">
              <mxPoint x="190" y="859" />
            </Array>
            <mxPoint as="offset" />
          </mxGeometry>
        </mxCell>
        <mxCell id="cn8MfWAvpaozi-GXlUmm-5" value="data_pertanyaan" style="edgeStyle=orthogonalEdgeStyle;rounded=0;orthogonalLoop=1;jettySize=auto;html=1;entryX=0.991;entryY=0.623;entryDx=0;entryDy=0;entryPerimeter=0;fontStyle=1" edge="1" parent="1" source="OiqCpDL5XZ7efOoXQ-Gw-8" target="OiqCpDL5XZ7efOoXQ-Gw-46">
          <mxGeometry x="0.3101" y="1" relative="1" as="geometry">
            <Array as="points">
              <mxPoint x="180" y="880" />
              <mxPoint x="-31" y="880" />
            </Array>
            <mxPoint as="offset" />
          </mxGeometry>
        </mxCell>
        <mxCell id="cn8MfWAvpaozi-GXlUmm-6" value="data_jawaban" style="edgeStyle=orthogonalEdgeStyle;rounded=0;orthogonalLoop=1;jettySize=auto;html=1;entryX=0.94;entryY=0.752;entryDx=0;entryDy=0;entryPerimeter=0;fontStyle=1" edge="1" parent="1" source="OiqCpDL5XZ7efOoXQ-Gw-8" target="OiqCpDL5XZ7efOoXQ-Gw-46">
          <mxGeometry x="0.3717" y="2" relative="1" as="geometry">
            <mxPoint x="-36" y="898" as="targetPoint" />
            <Array as="points">
              <mxPoint x="170" y="898" />
              <mxPoint x="55" y="898" />
            </Array>
            <mxPoint as="offset" />
          </mxGeometry>
        </mxCell>
        <mxCell id="iAnmKTyDdtcSxGajNDKb-4" value="data_lowongan" style="edgeStyle=orthogonalEdgeStyle;rounded=0;orthogonalLoop=1;jettySize=auto;html=1;entryX=-0.011;entryY=0.568;entryDx=0;entryDy=0;entryPerimeter=0;fontStyle=1" edge="1" parent="1" source="OiqCpDL5XZ7efOoXQ-Gw-8" target="OiqCpDL5XZ7efOoXQ-Gw-28">
          <mxGeometry x="0.5156" relative="1" as="geometry">
            <Array as="points">
              <mxPoint x="210" y="730" />
            </Array>
            <mxPoint as="offset" />
          </mxGeometry>
        </mxCell>
        <mxCell id="iAnmKTyDdtcSxGajNDKb-9" value="data_master_jabatan" style="edgeStyle=orthogonalEdgeStyle;rounded=0;orthogonalLoop=1;jettySize=auto;html=1;fontStyle=1" edge="1" parent="1" source="OiqCpDL5XZ7efOoXQ-Gw-8" target="OiqCpDL5XZ7efOoXQ-Gw-39">
          <mxGeometry x="-0.2107" relative="1" as="geometry">
            <mxPoint x="420" y="1110" as="targetPoint" />
            <Array as="points">
              <mxPoint x="240" y="830" />
              <mxPoint x="520" y="830" />
            </Array>
            <mxPoint as="offset" />
          </mxGeometry>
        </mxCell>
        <mxCell id="iAnmKTyDdtcSxGajNDKb-11" value="data_master_pertanyaan" style="edgeStyle=orthogonalEdgeStyle;rounded=0;orthogonalLoop=1;jettySize=auto;html=1;fontStyle=1" edge="1" parent="1" source="OiqCpDL5XZ7efOoXQ-Gw-8" target="OiqCpDL5XZ7efOoXQ-Gw-39">
          <mxGeometry x="-0.3322" relative="1" as="geometry">
            <Array as="points">
              <mxPoint x="260" y="870" />
              <mxPoint x="500" y="870" />
            </Array>
            <mxPoint as="offset" />
          </mxGeometry>
        </mxCell>
        <mxCell id="iAnmKTyDdtcSxGajNDKb-12" value="data_master_perusahaan" style="edgeStyle=orthogonalEdgeStyle;rounded=0;orthogonalLoop=1;jettySize=auto;html=1;fontStyle=1" edge="1" parent="1" source="OiqCpDL5XZ7efOoXQ-Gw-8" target="OiqCpDL5XZ7efOoXQ-Gw-39">
          <mxGeometry x="-0.1403" relative="1" as="geometry">
            <Array as="points">
              <mxPoint x="230" y="810" />
              <mxPoint x="530" y="810" />
            </Array>
            <mxPoint as="offset" />
          </mxGeometry>
        </mxCell>
        <mxCell id="iAnmKTyDdtcSxGajNDKb-13" value="data_master_formulir" style="edgeStyle=orthogonalEdgeStyle;rounded=0;orthogonalLoop=1;jettySize=auto;html=1;fontStyle=1" edge="1" parent="1" source="OiqCpDL5XZ7efOoXQ-Gw-8" target="OiqCpDL5XZ7efOoXQ-Gw-39">
          <mxGeometry x="-0.2982" relative="1" as="geometry">
            <Array as="points">
              <mxPoint x="250" y="850" />
              <mxPoint x="510" y="850" />
            </Array>
            <mxPoint as="offset" />
          </mxGeometry>
        </mxCell>
        <mxCell id="iAnmKTyDdtcSxGajNDKb-14" value="data_master_jawaban" style="edgeStyle=orthogonalEdgeStyle;rounded=0;orthogonalLoop=1;jettySize=auto;html=1;exitX=1.005;exitY=0.103;exitDx=0;exitDy=0;exitPerimeter=0;fontStyle=1" edge="1" parent="1" source="OiqCpDL5XZ7efOoXQ-Gw-8" target="OiqCpDL5XZ7efOoXQ-Gw-39">
          <mxGeometry x="-0.374" relative="1" as="geometry">
            <Array as="points">
              <mxPoint x="270" y="912" />
              <mxPoint x="270" y="890" />
              <mxPoint x="490" y="890" />
            </Array>
            <mxPoint as="offset" />
          </mxGeometry>
        </mxCell>
        <mxCell id="OiqCpDL5XZ7efOoXQ-Gw-8" value="PETUGAS SDM" style="rounded=0;whiteSpace=wrap;html=1;fontStyle=1" parent="1" vertex="1">
          <mxGeometry x="140" y="906" width="120" height="60" as="geometry" />
        </mxCell>
        <mxCell id="U07KT2BKH8Fez5uFZ1X3-24" value="data_login" style="edgeStyle=orthogonalEdgeStyle;rounded=0;orthogonalLoop=1;jettySize=auto;html=1;exitX=0.5;exitY=0;exitDx=0;exitDy=0;entryX=0.166;entryY=0.11;entryDx=0;entryDy=0;entryPerimeter=0;fontStyle=1" parent="1" source="OiqCpDL5XZ7efOoXQ-Gw-10" target="OiqCpDL5XZ7efOoXQ-Gw-5" edge="1">
          <mxGeometry x="-0.6938" relative="1" as="geometry">
            <mxPoint x="90" y="670" as="sourcePoint" />
            <mxPoint x="-160" y="1270" as="targetPoint" />
            <Array as="points">
              <mxPoint x="90" y="640" />
              <mxPoint x="-370" y="640" />
              <mxPoint x="-370" y="1176" />
            </Array>
            <mxPoint as="offset" />
          </mxGeometry>
        </mxCell>
        <mxCell id="4d8HZwbaE_h-RuxuQO1G-21" value="data_jawaban" style="edgeStyle=orthogonalEdgeStyle;rounded=0;orthogonalLoop=1;jettySize=auto;html=1;fontStyle=1" parent="1" source="OiqCpDL5XZ7efOoXQ-Gw-10" target="OiqCpDL5XZ7efOoXQ-Gw-46" edge="1">
          <mxGeometry relative="1" as="geometry">
            <Array as="points">
              <mxPoint x="90" y="820" />
            </Array>
          </mxGeometry>
        </mxCell>
        <mxCell id="4d8HZwbaE_h-RuxuQO1G-22" value="data_pertanyaan" style="edgeStyle=orthogonalEdgeStyle;rounded=0;orthogonalLoop=1;jettySize=auto;html=1;entryX=0.769;entryY=0.077;entryDx=0;entryDy=0;entryPerimeter=0;fontStyle=1" parent="1" source="OiqCpDL5XZ7efOoXQ-Gw-10" target="OiqCpDL5XZ7efOoXQ-Gw-46" edge="1">
          <mxGeometry relative="1" as="geometry">
            <Array as="points">
              <mxPoint x="80" y="800" />
              <mxPoint x="-60" y="800" />
            </Array>
          </mxGeometry>
        </mxCell>
        <mxCell id="4d8HZwbaE_h-RuxuQO1G-23" value="data_formulir_lamaran" style="edgeStyle=orthogonalEdgeStyle;rounded=0;orthogonalLoop=1;jettySize=auto;html=1;entryX=0.673;entryY=0.018;entryDx=0;entryDy=0;entryPerimeter=0;fontStyle=1" parent="1" source="OiqCpDL5XZ7efOoXQ-Gw-10" target="OiqCpDL5XZ7efOoXQ-Gw-46" edge="1">
          <mxGeometry relative="1" as="geometry">
            <Array as="points">
              <mxPoint x="70" y="780" />
              <mxPoint x="-72" y="780" />
            </Array>
          </mxGeometry>
        </mxCell>
        <mxCell id="4d8HZwbaE_h-RuxuQO1G-25" value="data_biodata_lamaran" style="edgeStyle=orthogonalEdgeStyle;rounded=0;orthogonalLoop=1;jettySize=auto;html=1;entryX=0.613;entryY=0.002;entryDx=0;entryDy=0;entryPerimeter=0;fontStyle=1" parent="1" source="OiqCpDL5XZ7efOoXQ-Gw-10" target="OiqCpDL5XZ7efOoXQ-Gw-46" edge="1">
          <mxGeometry relative="1" as="geometry">
            <Array as="points">
              <mxPoint x="60" y="760" />
              <mxPoint x="-80" y="760" />
            </Array>
          </mxGeometry>
        </mxCell>
        <mxCell id="OiqCpDL5XZ7efOoXQ-Gw-10" value="PELAMAR" style="rounded=0;whiteSpace=wrap;html=1;fontStyle=1" parent="1" vertex="1">
          <mxGeometry x="30" y="680" width="120" height="60" as="geometry" />
        </mxCell>
        <mxCell id="U07KT2BKH8Fez5uFZ1X3-17" value="info_data_user" style="edgeStyle=orthogonalEdgeStyle;rounded=0;orthogonalLoop=1;jettySize=auto;html=1;fontStyle=1" parent="1" source="OiqCpDL5XZ7efOoXQ-Gw-49" target="OiqCpDL5XZ7efOoXQ-Gw-18" edge="1">
          <mxGeometry x="0.1866" relative="1" as="geometry">
            <Array as="points">
              <mxPoint x="120" y="1340" />
            </Array>
            <mxPoint as="offset" />
          </mxGeometry>
        </mxCell>
        <mxCell id="U07KT2BKH8Fez5uFZ1X3-20" value="&lt;span style=&quot;color: rgb(0, 0, 0); font-family: Helvetica; font-size: 11px; font-style: normal; font-variant-ligatures: normal; font-variant-caps: normal; letter-spacing: normal; orphans: 2; text-align: center; text-indent: 0px; text-transform: none; widows: 2; word-spacing: 0px; -webkit-text-stroke-width: 0px; background-color: rgb(255, 255, 255); text-decoration-thickness: initial; text-decoration-style: initial; text-decoration-color: initial; float: none; display: inline !important;&quot;&gt;data_user&lt;/span&gt;" style="edgeStyle=orthogonalEdgeStyle;rounded=0;orthogonalLoop=1;jettySize=auto;html=1;entryX=0.389;entryY=0.997;entryDx=0;entryDy=0;entryPerimeter=0;fontStyle=1" parent="1" source="OiqCpDL5XZ7efOoXQ-Gw-18" target="OiqCpDL5XZ7efOoXQ-Gw-5" edge="1">
          <mxGeometry x="-0.3369" relative="1" as="geometry">
            <mxPoint x="-90" y="1180" as="targetPoint" />
            <Array as="points">
              <mxPoint x="80" y="1300" />
              <mxPoint x="-210" y="1300" />
            </Array>
            <mxPoint as="offset" />
          </mxGeometry>
        </mxCell>
        <mxCell id="4d8HZwbaE_h-RuxuQO1G-10" value="info_jawaban" style="edgeStyle=orthogonalEdgeStyle;rounded=0;orthogonalLoop=1;jettySize=auto;html=1;exitX=0.391;exitY=0.98;exitDx=0;exitDy=0;entryX=0.237;entryY=-0.02;entryDx=0;entryDy=0;exitPerimeter=0;jumpStyle=arc;entryPerimeter=0;fontStyle=1" parent="1" source="OiqCpDL5XZ7efOoXQ-Gw-46" target="OiqCpDL5XZ7efOoXQ-Gw-18" edge="1">
          <mxGeometry x="0.1176" relative="1" as="geometry">
            <Array as="points">
              <mxPoint x="-109" y="932" />
              <mxPoint x="-110" y="932" />
              <mxPoint x="-110" y="1120" />
              <mxPoint x="81" y="1120" />
            </Array>
            <mxPoint x="70" y="1150" as="targetPoint" />
            <mxPoint as="offset" />
          </mxGeometry>
        </mxCell>
        <mxCell id="4d8HZwbaE_h-RuxuQO1G-13" value="info_pertanyaan" style="edgeStyle=orthogonalEdgeStyle;rounded=0;orthogonalLoop=1;jettySize=auto;html=1;jumpStyle=arc;exitX=0.462;exitY=1.003;exitDx=0;exitDy=0;exitPerimeter=0;fontStyle=1" parent="1" source="OiqCpDL5XZ7efOoXQ-Gw-46" target="OiqCpDL5XZ7efOoXQ-Gw-18" edge="1">
          <mxGeometry x="0.1099" relative="1" as="geometry">
            <Array as="points">
              <mxPoint x="-100" y="1100" />
              <mxPoint x="90" y="1100" />
            </Array>
            <mxPoint x="-80" y="940" as="sourcePoint" />
            <mxPoint as="offset" />
          </mxGeometry>
        </mxCell>
        <mxCell id="4d8HZwbaE_h-RuxuQO1G-14" value="info_formulir_lamaran" style="edgeStyle=orthogonalEdgeStyle;rounded=0;orthogonalLoop=1;jettySize=auto;html=1;exitX=0.54;exitY=1.004;exitDx=0;exitDy=0;exitPerimeter=0;jumpStyle=arc;fontStyle=1" parent="1" source="OiqCpDL5XZ7efOoXQ-Gw-46" target="OiqCpDL5XZ7efOoXQ-Gw-18" edge="1">
          <mxGeometry x="0.1094" relative="1" as="geometry">
            <Array as="points">
              <mxPoint x="-90" y="1080" />
              <mxPoint x="100" y="1080" />
            </Array>
            <mxPoint as="offset" />
          </mxGeometry>
        </mxCell>
        <mxCell id="4d8HZwbaE_h-RuxuQO1G-15" value="info_biodata_lamaran" style="edgeStyle=orthogonalEdgeStyle;rounded=0;orthogonalLoop=1;jettySize=auto;html=1;exitX=0.614;exitY=0.988;exitDx=0;exitDy=0;exitPerimeter=0;jumpStyle=arc;fontStyle=1" parent="1" source="OiqCpDL5XZ7efOoXQ-Gw-46" target="OiqCpDL5XZ7efOoXQ-Gw-18" edge="1">
          <mxGeometry x="0.0661" relative="1" as="geometry">
            <Array as="points">
              <mxPoint x="-80" y="930" />
              <mxPoint x="-80" y="930" />
              <mxPoint x="-80" y="1060" />
              <mxPoint x="110" y="1060" />
            </Array>
            <mxPoint as="offset" />
          </mxGeometry>
        </mxCell>
        <mxCell id="iAnmKTyDdtcSxGajNDKb-21" value="data_master_perusahaan" style="edgeStyle=orthogonalEdgeStyle;rounded=0;orthogonalLoop=1;jettySize=auto;html=1;entryX=0;entryY=0.5;entryDx=0;entryDy=0;fontStyle=1" edge="1" parent="1" source="OiqCpDL5XZ7efOoXQ-Gw-18" target="OiqCpDL5XZ7efOoXQ-Gw-39">
          <mxGeometry x="-0.3582" relative="1" as="geometry">
            <mxPoint x="320" y="1184" as="targetPoint" />
            <Array as="points">
              <mxPoint x="140" y="1080" />
              <mxPoint x="420" y="1080" />
              <mxPoint x="420" y="1186" />
            </Array>
            <mxPoint as="offset" />
          </mxGeometry>
        </mxCell>
        <mxCell id="iAnmKTyDdtcSxGajNDKb-22" value="data_master_jabatan" style="edgeStyle=orthogonalEdgeStyle;rounded=0;orthogonalLoop=1;jettySize=auto;html=1;entryX=0.006;entryY=0.615;entryDx=0;entryDy=0;entryPerimeter=0;fontStyle=1" edge="1" parent="1" source="OiqCpDL5XZ7efOoXQ-Gw-18" target="OiqCpDL5XZ7efOoXQ-Gw-39">
          <mxGeometry x="-0.4435" relative="1" as="geometry">
            <Array as="points">
              <mxPoint x="150" y="1100" />
              <mxPoint x="410" y="1100" />
              <mxPoint x="410" y="1201" />
            </Array>
            <mxPoint as="offset" />
          </mxGeometry>
        </mxCell>
        <mxCell id="iAnmKTyDdtcSxGajNDKb-23" value="data_master_formulir" style="edgeStyle=orthogonalEdgeStyle;rounded=0;orthogonalLoop=1;jettySize=auto;html=1;entryX=0.028;entryY=0.689;entryDx=0;entryDy=0;entryPerimeter=0;fontStyle=1" edge="1" parent="1" source="OiqCpDL5XZ7efOoXQ-Gw-18" target="OiqCpDL5XZ7efOoXQ-Gw-39">
          <mxGeometry x="-0.4905" relative="1" as="geometry">
            <Array as="points">
              <mxPoint x="160" y="1120" />
              <mxPoint x="400" y="1120" />
              <mxPoint x="400" y="1210" />
            </Array>
            <mxPoint as="offset" />
          </mxGeometry>
        </mxCell>
        <mxCell id="iAnmKTyDdtcSxGajNDKb-24" value="data_master_pertanyaan" style="edgeStyle=orthogonalEdgeStyle;rounded=0;orthogonalLoop=1;jettySize=auto;html=1;fontStyle=1" edge="1" parent="1" source="OiqCpDL5XZ7efOoXQ-Gw-18" target="OiqCpDL5XZ7efOoXQ-Gw-39">
          <mxGeometry x="-0.497" relative="1" as="geometry">
            <mxPoint x="350" y="1250" as="targetPoint" />
            <Array as="points">
              <mxPoint x="170" y="1140" />
              <mxPoint x="390" y="1140" />
              <mxPoint x="390" y="1220" />
            </Array>
            <mxPoint as="offset" />
          </mxGeometry>
        </mxCell>
        <mxCell id="OiqCpDL5XZ7efOoXQ-Gw-18" value="SUPERUSER" style="rounded=0;whiteSpace=wrap;html=1;fontStyle=1" parent="1" vertex="1">
          <mxGeometry x="50" y="1154" width="130" height="60" as="geometry" />
        </mxCell>
        <mxCell id="U07KT2BKH8Fez5uFZ1X3-12" value="info_data_user" style="edgeStyle=orthogonalEdgeStyle;rounded=0;orthogonalLoop=1;jettySize=auto;html=1;entryX=-0.007;entryY=0.351;entryDx=0;entryDy=0;entryPerimeter=0;fontStyle=1" parent="1" source="OiqCpDL5XZ7efOoXQ-Gw-21" target="OiqCpDL5XZ7efOoXQ-Gw-5" edge="1">
          <mxGeometry relative="1" as="geometry">
            <Array as="points">
              <mxPoint x="-375" y="1197.94" />
            </Array>
          </mxGeometry>
        </mxCell>
        <mxCell id="U07KT2BKH8Fez5uFZ1X3-14" value="info_data_user" style="edgeStyle=orthogonalEdgeStyle;rounded=0;orthogonalLoop=1;jettySize=auto;html=1;entryX=0.018;entryY=0.677;entryDx=0;entryDy=0;entryPerimeter=0;fontStyle=1" parent="1" source="OiqCpDL5XZ7efOoXQ-Gw-21" target="OiqCpDL5XZ7efOoXQ-Gw-49" edge="1">
          <mxGeometry relative="1" as="geometry">
            <mxPoint x="-260" y="1370" as="targetPoint" />
            <Array as="points">
              <mxPoint x="-375" y="1370" />
            </Array>
          </mxGeometry>
        </mxCell>
        <mxCell id="OiqCpDL5XZ7efOoXQ-Gw-21" value="User" style="html=1;dashed=0;whitespace=wrap;shape=partialRectangle;right=0;left=0;fontStyle=1" parent="1" vertex="1">
          <mxGeometry x="-425" y="1270.94" width="100" height="30" as="geometry" />
        </mxCell>
        <mxCell id="cqjbYC5P1DjbwnzgqMl4-17" value="info_data_lowongan" style="edgeStyle=orthogonalEdgeStyle;rounded=0;orthogonalLoop=1;jettySize=auto;html=1;fontStyle=1" parent="1" source="OiqCpDL5XZ7efOoXQ-Gw-23" target="OiqCpDL5XZ7efOoXQ-Gw-28" edge="1">
          <mxGeometry x="-0.214" y="1" relative="1" as="geometry">
            <Array as="points">
              <mxPoint x="590" y="750" />
              <mxPoint x="450" y="750" />
              <mxPoint x="450" y="736" />
            </Array>
            <mxPoint as="offset" />
          </mxGeometry>
        </mxCell>
        <mxCell id="OiqCpDL5XZ7efOoXQ-Gw-23" value="Lowongan" style="html=1;dashed=0;whitespace=wrap;shape=partialRectangle;right=0;left=0;fontStyle=1" parent="1" vertex="1">
          <mxGeometry x="540" y="690" width="100" height="34" as="geometry" />
        </mxCell>
        <mxCell id="cqjbYC5P1DjbwnzgqMl4-16" value="data_lowongan" style="edgeStyle=orthogonalEdgeStyle;rounded=0;orthogonalLoop=1;jettySize=auto;html=1;entryX=0.5;entryY=0;entryDx=0;entryDy=0;fontStyle=1" parent="1" source="OiqCpDL5XZ7efOoXQ-Gw-28" target="OiqCpDL5XZ7efOoXQ-Gw-23" edge="1">
          <mxGeometry relative="1" as="geometry">
            <Array as="points">
              <mxPoint x="365" y="670" />
              <mxPoint x="590" y="670" />
            </Array>
          </mxGeometry>
        </mxCell>
        <mxCell id="MHDbr5eAJy24fqXW2VCL-20" value="info_data_lowongan" style="edgeStyle=orthogonalEdgeStyle;rounded=0;orthogonalLoop=1;jettySize=auto;html=1;fontStyle=1" parent="1" source="OiqCpDL5XZ7efOoXQ-Gw-28" target="OiqCpDL5XZ7efOoXQ-Gw-10" edge="1">
          <mxGeometry relative="1" as="geometry">
            <Array as="points">
              <mxPoint x="260" y="710" />
              <mxPoint x="260" y="710" />
            </Array>
          </mxGeometry>
        </mxCell>
        <mxCell id="iAnmKTyDdtcSxGajNDKb-5" value="info_data_lowongan" style="edgeStyle=orthogonalEdgeStyle;rounded=0;orthogonalLoop=1;jettySize=auto;html=1;fontStyle=1" edge="1" parent="1" source="OiqCpDL5XZ7efOoXQ-Gw-28">
          <mxGeometry x="-0.559" relative="1" as="geometry">
            <mxPoint x="220" y="906" as="targetPoint" />
            <Array as="points">
              <mxPoint x="220" y="750" />
            </Array>
            <mxPoint as="offset" />
          </mxGeometry>
        </mxCell>
        <mxCell id="OiqCpDL5XZ7efOoXQ-Gw-28" value="&lt;div&gt;P.2&lt;/div&gt;&lt;div&gt;Kelola Data Lowongan&lt;br&gt;&lt;/div&gt;" style="ellipse;whiteSpace=wrap;html=1;aspect=fixed;fontStyle=1" parent="1" vertex="1">
          <mxGeometry x="320" y="679" width="90" height="90" as="geometry" />
        </mxCell>
        <mxCell id="cqjbYC5P1DjbwnzgqMl4-25" value="data_perusahaan" style="edgeStyle=orthogonalEdgeStyle;rounded=0;orthogonalLoop=1;jettySize=auto;html=1;entryX=0.5;entryY=0;entryDx=0;entryDy=0;fontStyle=1" parent="1" source="OiqCpDL5XZ7efOoXQ-Gw-39" target="OiqCpDL5XZ7efOoXQ-Gw-59" edge="1">
          <mxGeometry x="-0.1242" relative="1" as="geometry">
            <Array as="points">
              <mxPoint x="540" y="1040.95" />
              <mxPoint x="750" y="1040.95" />
            </Array>
            <mxPoint as="offset" />
          </mxGeometry>
        </mxCell>
        <mxCell id="cqjbYC5P1DjbwnzgqMl4-27" value="data_master_jabatan" style="edgeStyle=orthogonalEdgeStyle;rounded=0;orthogonalLoop=1;jettySize=auto;html=1;fontStyle=1" parent="1" source="OiqCpDL5XZ7efOoXQ-Gw-39" edge="1">
          <mxGeometry relative="1" as="geometry">
            <Array as="points">
              <mxPoint x="560" y="1112.95" />
              <mxPoint x="760" y="1112.95" />
              <mxPoint x="760" y="1131.95" />
            </Array>
            <mxPoint x="760" y="1131.95" as="targetPoint" />
          </mxGeometry>
        </mxCell>
        <mxCell id="cqjbYC5P1DjbwnzgqMl4-30" value="data_master_formulir" style="edgeStyle=orthogonalEdgeStyle;rounded=0;orthogonalLoop=1;jettySize=auto;html=1;entryX=0.5;entryY=0;entryDx=0;entryDy=0;fontStyle=1" parent="1" source="OiqCpDL5XZ7efOoXQ-Gw-39" target="OiqCpDL5XZ7efOoXQ-Gw-55" edge="1">
          <mxGeometry x="0.0781" relative="1" as="geometry">
            <Array as="points">
              <mxPoint x="610" y="1206" />
              <mxPoint x="610" y="1184" />
              <mxPoint x="780" y="1184" />
            </Array>
            <mxPoint as="offset" />
          </mxGeometry>
        </mxCell>
        <mxCell id="cqjbYC5P1DjbwnzgqMl4-33" value="data_master_pertanyaan" style="edgeStyle=orthogonalEdgeStyle;rounded=0;orthogonalLoop=1;jettySize=auto;html=1;fontStyle=1" parent="1" source="OiqCpDL5XZ7efOoXQ-Gw-39" target="cqjbYC5P1DjbwnzgqMl4-1" edge="1">
          <mxGeometry x="-0.1925" relative="1" as="geometry">
            <Array as="points">
              <mxPoint x="550" y="1261" />
              <mxPoint x="760" y="1261" />
            </Array>
            <mxPoint as="offset" />
          </mxGeometry>
        </mxCell>
        <mxCell id="cqjbYC5P1DjbwnzgqMl4-36" value="data_master_jawaban" style="edgeStyle=orthogonalEdgeStyle;rounded=0;orthogonalLoop=1;jettySize=auto;html=1;entryX=0.5;entryY=0;entryDx=0;entryDy=0;fontStyle=1" parent="1" source="OiqCpDL5XZ7efOoXQ-Gw-39" target="cqjbYC5P1DjbwnzgqMl4-2" edge="1">
          <mxGeometry x="0.0282" y="1" relative="1" as="geometry">
            <Array as="points">
              <mxPoint x="530" y="1330.95" />
              <mxPoint x="750" y="1330.95" />
            </Array>
            <mxPoint as="offset" />
          </mxGeometry>
        </mxCell>
        <mxCell id="iAnmKTyDdtcSxGajNDKb-15" value="info_data_perusahaan" style="edgeStyle=orthogonalEdgeStyle;rounded=0;orthogonalLoop=1;jettySize=auto;html=1;entryX=1;entryY=0.25;entryDx=0;entryDy=0;fontStyle=1" edge="1" parent="1" source="OiqCpDL5XZ7efOoXQ-Gw-39" target="OiqCpDL5XZ7efOoXQ-Gw-8">
          <mxGeometry x="0.3863" y="1" relative="1" as="geometry">
            <Array as="points">
              <mxPoint x="480" y="920" />
              <mxPoint x="260" y="920" />
            </Array>
            <mxPoint as="offset" />
          </mxGeometry>
        </mxCell>
        <mxCell id="iAnmKTyDdtcSxGajNDKb-16" value="info_data_jabatan" style="edgeStyle=orthogonalEdgeStyle;rounded=0;orthogonalLoop=1;jettySize=auto;html=1;fontStyle=1" edge="1" parent="1" source="OiqCpDL5XZ7efOoXQ-Gw-39">
          <mxGeometry x="0.4515" relative="1" as="geometry">
            <mxPoint x="260" y="940" as="targetPoint" />
            <Array as="points">
              <mxPoint x="470" y="940" />
            </Array>
            <mxPoint as="offset" />
          </mxGeometry>
        </mxCell>
        <mxCell id="iAnmKTyDdtcSxGajNDKb-18" value="info_data_formulir" style="edgeStyle=orthogonalEdgeStyle;rounded=0;orthogonalLoop=1;jettySize=auto;html=1;fontStyle=1" edge="1" parent="1" source="OiqCpDL5XZ7efOoXQ-Gw-39" target="OiqCpDL5XZ7efOoXQ-Gw-8">
          <mxGeometry x="0.4723" relative="1" as="geometry">
            <Array as="points">
              <mxPoint x="460" y="960" />
            </Array>
            <mxPoint as="offset" />
          </mxGeometry>
        </mxCell>
        <mxCell id="iAnmKTyDdtcSxGajNDKb-19" value="info_data_master_pertanyaan" style="edgeStyle=orthogonalEdgeStyle;rounded=0;orthogonalLoop=1;jettySize=auto;html=1;fontStyle=1" edge="1" parent="1" source="OiqCpDL5XZ7efOoXQ-Gw-39" target="OiqCpDL5XZ7efOoXQ-Gw-8">
          <mxGeometry x="0.1346" relative="1" as="geometry">
            <Array as="points">
              <mxPoint x="450" y="980" />
              <mxPoint x="210" y="980" />
            </Array>
            <mxPoint as="offset" />
          </mxGeometry>
        </mxCell>
        <mxCell id="iAnmKTyDdtcSxGajNDKb-20" value="info_data_master_jawaban" style="edgeStyle=orthogonalEdgeStyle;rounded=0;orthogonalLoop=1;jettySize=auto;html=1;exitX=0.027;exitY=0.337;exitDx=0;exitDy=0;exitPerimeter=0;fontStyle=1" edge="1" parent="1" source="OiqCpDL5XZ7efOoXQ-Gw-39" target="OiqCpDL5XZ7efOoXQ-Gw-8">
          <mxGeometry x="0.0535" relative="1" as="geometry">
            <Array as="points">
              <mxPoint x="440" y="1165" />
              <mxPoint x="440" y="1000" />
              <mxPoint x="190" y="1000" />
            </Array>
            <mxPoint as="offset" />
          </mxGeometry>
        </mxCell>
        <mxCell id="iAnmKTyDdtcSxGajNDKb-25" value="data_master_jawaban" style="edgeStyle=orthogonalEdgeStyle;rounded=0;orthogonalLoop=1;jettySize=auto;html=1;fontStyle=1" edge="1" parent="1" source="OiqCpDL5XZ7efOoXQ-Gw-18" target="OiqCpDL5XZ7efOoXQ-Gw-39">
          <mxGeometry x="-0.5969" relative="1" as="geometry">
            <Array as="points">
              <mxPoint x="380" y="1160" />
              <mxPoint x="380" y="1230" />
            </Array>
            <mxPoint as="offset" />
          </mxGeometry>
        </mxCell>
        <mxCell id="iAnmKTyDdtcSxGajNDKb-26" value="info_master_perusahaan" style="edgeStyle=orthogonalEdgeStyle;rounded=0;orthogonalLoop=1;jettySize=auto;html=1;fontStyle=1" edge="1" parent="1" source="OiqCpDL5XZ7efOoXQ-Gw-39" target="OiqCpDL5XZ7efOoXQ-Gw-18">
          <mxGeometry x="0.5416" relative="1" as="geometry">
            <Array as="points">
              <mxPoint x="360" y="1240" />
              <mxPoint x="360" y="1180" />
            </Array>
            <mxPoint as="offset" />
          </mxGeometry>
        </mxCell>
        <mxCell id="iAnmKTyDdtcSxGajNDKb-27" value="info_data_master_jabatan" style="edgeStyle=orthogonalEdgeStyle;rounded=0;orthogonalLoop=1;jettySize=auto;html=1;entryX=1;entryY=0.75;entryDx=0;entryDy=0;exitX=0.294;exitY=0.947;exitDx=0;exitDy=0;exitPerimeter=0;fontStyle=1" edge="1" parent="1" source="OiqCpDL5XZ7efOoXQ-Gw-39" target="OiqCpDL5XZ7efOoXQ-Gw-18">
          <mxGeometry x="0.4983" y="1" relative="1" as="geometry">
            <Array as="points">
              <mxPoint x="480" y="1244" />
              <mxPoint x="480" y="1250" />
              <mxPoint x="350" y="1250" />
              <mxPoint x="350" y="1199" />
            </Array>
            <mxPoint as="offset" />
          </mxGeometry>
        </mxCell>
        <mxCell id="iAnmKTyDdtcSxGajNDKb-28" value="info_data_master_formulir" style="edgeStyle=orthogonalEdgeStyle;rounded=0;orthogonalLoop=1;jettySize=auto;html=1;fontStyle=1" edge="1" parent="1" source="OiqCpDL5XZ7efOoXQ-Gw-39" target="OiqCpDL5XZ7efOoXQ-Gw-18">
          <mxGeometry x="0.2213" relative="1" as="geometry">
            <Array as="points">
              <mxPoint x="490" y="1260" />
              <mxPoint x="170" y="1260" />
            </Array>
            <mxPoint as="offset" />
          </mxGeometry>
        </mxCell>
        <mxCell id="iAnmKTyDdtcSxGajNDKb-29" value="info_data_master_pertanyaan" style="edgeStyle=orthogonalEdgeStyle;rounded=0;orthogonalLoop=1;jettySize=auto;html=1;entryX=0.817;entryY=0.987;entryDx=0;entryDy=0;entryPerimeter=0;fontStyle=1" edge="1" parent="1" source="OiqCpDL5XZ7efOoXQ-Gw-39" target="OiqCpDL5XZ7efOoXQ-Gw-18">
          <mxGeometry x="0.2209" relative="1" as="geometry">
            <mxPoint x="160" y="1220.800048828125" as="targetPoint" />
            <Array as="points">
              <mxPoint x="500" y="1280" />
              <mxPoint x="156" y="1280" />
            </Array>
            <mxPoint as="offset" />
          </mxGeometry>
        </mxCell>
        <mxCell id="iAnmKTyDdtcSxGajNDKb-30" value="info_data_master_jawaban" style="edgeStyle=orthogonalEdgeStyle;rounded=0;orthogonalLoop=1;jettySize=auto;html=1;entryX=0.697;entryY=1;entryDx=0;entryDy=0;entryPerimeter=0;fontStyle=1" edge="1" parent="1" source="OiqCpDL5XZ7efOoXQ-Gw-39" target="OiqCpDL5XZ7efOoXQ-Gw-18">
          <mxGeometry x="0.2666" relative="1" as="geometry">
            <Array as="points">
              <mxPoint x="510" y="1300" />
              <mxPoint x="141" y="1300" />
            </Array>
            <mxPoint as="offset" />
          </mxGeometry>
        </mxCell>
        <mxCell id="OiqCpDL5XZ7efOoXQ-Gw-39" value="&lt;div&gt;P.3&lt;/div&gt;&lt;div&gt;Kelola Master Data&lt;br&gt;&lt;/div&gt;" style="ellipse;whiteSpace=wrap;html=1;aspect=fixed;fontStyle=1" parent="1" vertex="1">
          <mxGeometry x="440" y="1120.89" width="130" height="130" as="geometry" />
        </mxCell>
        <mxCell id="MHDbr5eAJy24fqXW2VCL-37" value="data_biodata_lamaran" style="edgeStyle=orthogonalEdgeStyle;rounded=0;orthogonalLoop=1;jettySize=auto;html=1;entryX=0.325;entryY=-0.007;entryDx=0;entryDy=0;entryPerimeter=0;fontStyle=1" parent="1" source="OiqCpDL5XZ7efOoXQ-Gw-46" edge="1" target="OiqCpDL5XZ7efOoXQ-Gw-53">
          <mxGeometry x="0.2552" relative="1" as="geometry">
            <mxPoint x="-290" y="700" as="targetPoint" />
            <Array as="points">
              <mxPoint x="-130" y="670" />
              <mxPoint x="-290" y="670" />
              <mxPoint x="-290" y="700" />
            </Array>
            <mxPoint as="offset" />
          </mxGeometry>
        </mxCell>
        <mxCell id="MHDbr5eAJy24fqXW2VCL-42" value="data_formulir" style="edgeStyle=orthogonalEdgeStyle;rounded=0;orthogonalLoop=1;jettySize=auto;html=1;entryX=0.399;entryY=1.01;entryDx=0;entryDy=0;entryPerimeter=0;fontStyle=1" parent="1" source="OiqCpDL5XZ7efOoXQ-Gw-46" target="OiqCpDL5XZ7efOoXQ-Gw-51" edge="1">
          <mxGeometry relative="1" as="geometry">
            <Array as="points">
              <mxPoint x="-280" y="830" />
            </Array>
          </mxGeometry>
        </mxCell>
        <mxCell id="MHDbr5eAJy24fqXW2VCL-44" value="data_pertanyaan" style="edgeStyle=orthogonalEdgeStyle;rounded=0;orthogonalLoop=1;jettySize=auto;html=1;entryX=0.2;entryY=-0.008;entryDx=0;entryDy=0;entryPerimeter=0;fontStyle=1" parent="1" source="OiqCpDL5XZ7efOoXQ-Gw-46" target="j1Ypt0l_bqrAoIXSdnt6-3" edge="1">
          <mxGeometry relative="1" as="geometry">
            <Array as="points">
              <mxPoint x="-300" y="850" />
            </Array>
          </mxGeometry>
        </mxCell>
        <mxCell id="MHDbr5eAJy24fqXW2VCL-46" value="data_jawaban" style="edgeStyle=orthogonalEdgeStyle;rounded=0;orthogonalLoop=1;jettySize=auto;html=1;entryX=0.343;entryY=0.01;entryDx=0;entryDy=0;entryPerimeter=0;exitX=0.025;exitY=0.614;exitDx=0;exitDy=0;exitPerimeter=0;fontStyle=1" parent="1" source="OiqCpDL5XZ7efOoXQ-Gw-46" target="j1Ypt0l_bqrAoIXSdnt6-4" edge="1">
          <mxGeometry x="0.2589" relative="1" as="geometry">
            <Array as="points">
              <mxPoint x="-190" y="880" />
              <mxPoint x="-190" y="950" />
              <mxPoint x="-290" y="950" />
            </Array>
            <mxPoint x="-170" y="880" as="sourcePoint" />
            <mxPoint as="offset" />
          </mxGeometry>
        </mxCell>
        <mxCell id="4d8HZwbaE_h-RuxuQO1G-4" value="data_jawaban" style="edgeStyle=orthogonalEdgeStyle;rounded=0;orthogonalLoop=1;jettySize=auto;html=1;jumpStyle=arc;exitX=0;exitY=0.767;exitDx=0;exitDy=0;exitPerimeter=0;fontStyle=1" parent="1" source="OiqCpDL5XZ7efOoXQ-Gw-18" target="OiqCpDL5XZ7efOoXQ-Gw-46" edge="1">
          <mxGeometry x="-0.5202" relative="1" as="geometry">
            <Array as="points">
              <mxPoint x="-150" y="1200" />
            </Array>
            <mxPoint x="40" y="1200" as="sourcePoint" />
            <mxPoint as="offset" />
          </mxGeometry>
        </mxCell>
        <mxCell id="4d8HZwbaE_h-RuxuQO1G-5" value="data_pertanyaan" style="edgeStyle=orthogonalEdgeStyle;rounded=0;orthogonalLoop=1;jettySize=auto;html=1;jumpStyle=arc;exitX=0;exitY=0.433;exitDx=0;exitDy=0;exitPerimeter=0;fontStyle=1" parent="1" source="OiqCpDL5XZ7efOoXQ-Gw-18" target="OiqCpDL5XZ7efOoXQ-Gw-46" edge="1">
          <mxGeometry x="-0.607" relative="1" as="geometry">
            <Array as="points">
              <mxPoint x="-140" y="1180" />
            </Array>
            <mxPoint x="70" y="1150" as="sourcePoint" />
            <mxPoint as="offset" />
          </mxGeometry>
        </mxCell>
        <mxCell id="4d8HZwbaE_h-RuxuQO1G-6" value="data_formulir_lamaran" style="edgeStyle=orthogonalEdgeStyle;rounded=0;orthogonalLoop=1;jettySize=auto;html=1;jumpStyle=arc;fontStyle=1" parent="1" edge="1" target="OiqCpDL5XZ7efOoXQ-Gw-46">
          <mxGeometry x="-0.6668" relative="1" as="geometry">
            <Array as="points">
              <mxPoint x="-130" y="1160" />
            </Array>
            <mxPoint x="50" y="1160" as="sourcePoint" />
            <mxPoint as="offset" />
          </mxGeometry>
        </mxCell>
        <mxCell id="4d8HZwbaE_h-RuxuQO1G-8" value="data_biodata_lamaran" style="edgeStyle=orthogonalEdgeStyle;rounded=0;orthogonalLoop=1;jettySize=auto;html=1;jumpStyle=arc;fontStyle=1" parent="1" edge="1" target="OiqCpDL5XZ7efOoXQ-Gw-46">
          <mxGeometry x="-0.6379" relative="1" as="geometry">
            <Array as="points">
              <mxPoint x="60" y="1140" />
              <mxPoint x="-120" y="1140" />
            </Array>
            <mxPoint x="60" y="1154" as="sourcePoint" />
            <mxPoint as="offset" />
          </mxGeometry>
        </mxCell>
        <mxCell id="4d8HZwbaE_h-RuxuQO1G-16" value="info_biodata_lamaran" style="edgeStyle=orthogonalEdgeStyle;rounded=0;orthogonalLoop=1;jettySize=auto;html=1;entryX=0;entryY=0;entryDx=0;entryDy=0;exitX=0.315;exitY=0.045;exitDx=0;exitDy=0;exitPerimeter=0;fontStyle=1" parent="1" source="OiqCpDL5XZ7efOoXQ-Gw-46" target="OiqCpDL5XZ7efOoXQ-Gw-10" edge="1">
          <mxGeometry x="0.3447" relative="1" as="geometry">
            <mxPoint y="690" as="targetPoint" />
            <Array as="points">
              <mxPoint x="-119" y="680" />
              <mxPoint x="30" y="680" />
            </Array>
            <mxPoint as="offset" />
          </mxGeometry>
        </mxCell>
        <mxCell id="4d8HZwbaE_h-RuxuQO1G-17" value="info_formulir_lamaran" style="edgeStyle=orthogonalEdgeStyle;rounded=0;orthogonalLoop=1;jettySize=auto;html=1;fontStyle=1" parent="1" source="OiqCpDL5XZ7efOoXQ-Gw-46" edge="1">
          <mxGeometry x="0.3375" relative="1" as="geometry">
            <mxPoint x="30" y="700" as="targetPoint" />
            <Array as="points">
              <mxPoint x="-110" y="700" />
              <mxPoint x="30" y="700" />
            </Array>
            <mxPoint as="offset" />
          </mxGeometry>
        </mxCell>
        <mxCell id="4d8HZwbaE_h-RuxuQO1G-19" value="info_pertanyaan" style="edgeStyle=orthogonalEdgeStyle;rounded=0;orthogonalLoop=1;jettySize=auto;html=1;fontStyle=1" parent="1" source="OiqCpDL5XZ7efOoXQ-Gw-46" edge="1">
          <mxGeometry x="0.4284" relative="1" as="geometry">
            <mxPoint x="30" y="720" as="targetPoint" />
            <Array as="points">
              <mxPoint x="-100" y="720" />
              <mxPoint x="30" y="720" />
            </Array>
            <mxPoint as="offset" />
          </mxGeometry>
        </mxCell>
        <mxCell id="4d8HZwbaE_h-RuxuQO1G-20" value="info_jawaban" style="edgeStyle=orthogonalEdgeStyle;rounded=0;orthogonalLoop=1;jettySize=auto;html=1;fontStyle=1" parent="1" source="OiqCpDL5XZ7efOoXQ-Gw-46" edge="1">
          <mxGeometry x="0.4449" relative="1" as="geometry">
            <mxPoint x="30" y="740" as="targetPoint" />
            <Array as="points">
              <mxPoint x="-90" y="740" />
            </Array>
            <mxPoint as="offset" />
          </mxGeometry>
        </mxCell>
        <mxCell id="cn8MfWAvpaozi-GXlUmm-7" value="info_biodata_lamaran" style="edgeStyle=orthogonalEdgeStyle;rounded=0;orthogonalLoop=1;jettySize=auto;html=1;exitX=0.93;exitY=0.759;exitDx=0;exitDy=0;exitPerimeter=0;entryX=0;entryY=0.232;entryDx=0;entryDy=0;entryPerimeter=0;fontStyle=1" edge="1" parent="1" source="OiqCpDL5XZ7efOoXQ-Gw-46" target="OiqCpDL5XZ7efOoXQ-Gw-8">
          <mxGeometry relative="1" as="geometry">
            <mxPoint x="130" y="920" as="targetPoint" />
            <Array as="points">
              <mxPoint x="-39" y="920" />
            </Array>
          </mxGeometry>
        </mxCell>
        <mxCell id="cn8MfWAvpaozi-GXlUmm-10" value="info_formulir_lamaran" style="edgeStyle=orthogonalEdgeStyle;rounded=0;orthogonalLoop=1;jettySize=auto;html=1;exitX=1;exitY=1;exitDx=0;exitDy=0;fontStyle=1" edge="1" parent="1" source="OiqCpDL5XZ7efOoXQ-Gw-46">
          <mxGeometry relative="1" as="geometry">
            <mxPoint x="140" y="940" as="targetPoint" />
            <Array as="points">
              <mxPoint x="-49" y="940" />
              <mxPoint x="140" y="940" />
            </Array>
          </mxGeometry>
        </mxCell>
        <mxCell id="iAnmKTyDdtcSxGajNDKb-2" value="info_data_pertanyaan" style="edgeStyle=orthogonalEdgeStyle;rounded=0;orthogonalLoop=1;jettySize=auto;html=1;entryX=-0.014;entryY=0.839;entryDx=0;entryDy=0;entryPerimeter=0;fontStyle=1" edge="1" parent="1" source="OiqCpDL5XZ7efOoXQ-Gw-46" target="OiqCpDL5XZ7efOoXQ-Gw-8">
          <mxGeometry relative="1" as="geometry">
            <Array as="points">
              <mxPoint x="-60" y="956" />
              <mxPoint x="55" y="956" />
            </Array>
          </mxGeometry>
        </mxCell>
        <mxCell id="iAnmKTyDdtcSxGajNDKb-3" value="info_data_jawaban" style="edgeStyle=orthogonalEdgeStyle;rounded=0;orthogonalLoop=1;jettySize=auto;html=1;fontStyle=1" edge="1" parent="1" source="OiqCpDL5XZ7efOoXQ-Gw-46" target="OiqCpDL5XZ7efOoXQ-Gw-8">
          <mxGeometry x="-0.1352" relative="1" as="geometry">
            <Array as="points">
              <mxPoint x="-70" y="980" />
              <mxPoint x="150" y="980" />
            </Array>
            <mxPoint as="offset" />
          </mxGeometry>
        </mxCell>
        <mxCell id="OiqCpDL5XZ7efOoXQ-Gw-46" value="&lt;div&gt;P.4&lt;/div&gt;&lt;div&gt;Kelola&amp;nbsp;&lt;/div&gt;&lt;div&gt;&lt;span style=&quot;background-color: initial;&quot;&gt;Lamaran&lt;/span&gt;&lt;br&gt;&lt;/div&gt;" style="ellipse;whiteSpace=wrap;html=1;aspect=fixed;fontStyle=1" parent="1" vertex="1">
          <mxGeometry x="-160" y="800" width="130" height="130" as="geometry" />
        </mxCell>
        <mxCell id="U07KT2BKH8Fez5uFZ1X3-15" value="data_user" style="edgeStyle=orthogonalEdgeStyle;rounded=0;orthogonalLoop=1;jettySize=auto;html=1;entryX=0.75;entryY=1;entryDx=0;entryDy=0;fontStyle=1" parent="1" source="OiqCpDL5XZ7efOoXQ-Gw-49" target="OiqCpDL5XZ7efOoXQ-Gw-21" edge="1">
          <mxGeometry relative="1" as="geometry">
            <Array as="points">
              <mxPoint x="-350" y="1330" />
            </Array>
          </mxGeometry>
        </mxCell>
        <mxCell id="U07KT2BKH8Fez5uFZ1X3-16" value="&lt;span style=&quot;color: rgb(0, 0, 0); font-family: Helvetica; font-size: 11px; font-style: normal; font-variant-ligatures: normal; font-variant-caps: normal; letter-spacing: normal; orphans: 2; text-align: center; text-indent: 0px; text-transform: none; widows: 2; word-spacing: 0px; -webkit-text-stroke-width: 0px; background-color: rgb(255, 255, 255); text-decoration-thickness: initial; text-decoration-style: initial; text-decoration-color: initial; float: none; display: inline !important;&quot;&gt;data_user&lt;/span&gt;" style="edgeStyle=orthogonalEdgeStyle;rounded=0;orthogonalLoop=1;jettySize=auto;html=1;fontStyle=1" parent="1" source="OiqCpDL5XZ7efOoXQ-Gw-18" target="OiqCpDL5XZ7efOoXQ-Gw-49" edge="1">
          <mxGeometry x="-0.1994" relative="1" as="geometry">
            <Array as="points">
              <mxPoint x="100" y="1320" />
            </Array>
            <mxPoint as="offset" />
          </mxGeometry>
        </mxCell>
        <mxCell id="OiqCpDL5XZ7efOoXQ-Gw-49" value="&lt;div&gt;P.5&lt;/div&gt;&lt;div&gt;Kelola User&lt;br&gt;&lt;/div&gt;" style="ellipse;whiteSpace=wrap;html=1;aspect=fixed;fontStyle=1" parent="1" vertex="1">
          <mxGeometry x="-250" y="1308.94" width="90" height="90" as="geometry" />
        </mxCell>
        <mxCell id="MHDbr5eAJy24fqXW2VCL-41" value="info_data_formulir" style="edgeStyle=orthogonalEdgeStyle;rounded=0;orthogonalLoop=1;jettySize=auto;html=1;entryX=0;entryY=0;entryDx=0;entryDy=0;fontStyle=1" parent="1" source="OiqCpDL5XZ7efOoXQ-Gw-51" target="OiqCpDL5XZ7efOoXQ-Gw-46" edge="1">
          <mxGeometry x="-0.2698" relative="1" as="geometry">
            <mxPoint x="-150" y="820" as="targetPoint" />
            <Array as="points">
              <mxPoint x="-280" y="750" />
              <mxPoint x="-160" y="750" />
              <mxPoint x="-160" y="820" />
              <mxPoint x="-147" y="820" />
            </Array>
            <mxPoint as="offset" />
          </mxGeometry>
        </mxCell>
        <mxCell id="OiqCpDL5XZ7efOoXQ-Gw-51" value="Formulir Lamaran" style="html=1;dashed=0;whitespace=wrap;shape=partialRectangle;right=0;left=0;fontStyle=1" parent="1" vertex="1">
          <mxGeometry x="-320" y="760" width="100" height="34" as="geometry" />
        </mxCell>
        <mxCell id="iAnmKTyDdtcSxGajNDKb-1" value="info_biodata_lamaran" style="edgeStyle=orthogonalEdgeStyle;rounded=0;orthogonalLoop=1;jettySize=auto;html=1;entryX=0.164;entryY=0.123;entryDx=0;entryDy=0;entryPerimeter=0;fontStyle=1" edge="1" parent="1" source="OiqCpDL5XZ7efOoXQ-Gw-53" target="OiqCpDL5XZ7efOoXQ-Gw-46">
          <mxGeometry x="-0.3546" relative="1" as="geometry">
            <Array as="points">
              <mxPoint x="-274" y="690" />
              <mxPoint x="-139" y="690" />
            </Array>
            <mxPoint as="offset" />
          </mxGeometry>
        </mxCell>
        <mxCell id="OiqCpDL5XZ7efOoXQ-Gw-53" value="Biodata Lamaran" style="html=1;dashed=0;whitespace=wrap;shape=partialRectangle;right=0;left=0;fontStyle=1" parent="1" vertex="1">
          <mxGeometry x="-320" y="704.94" width="91.35" height="31.06" as="geometry" />
        </mxCell>
        <mxCell id="cqjbYC5P1DjbwnzgqMl4-32" value="info_data_master_formulir" style="edgeStyle=orthogonalEdgeStyle;rounded=0;orthogonalLoop=1;jettySize=auto;html=1;entryX=0.918;entryY=0.766;entryDx=0;entryDy=0;entryPerimeter=0;fontStyle=1" parent="1" source="OiqCpDL5XZ7efOoXQ-Gw-55" edge="1" target="OiqCpDL5XZ7efOoXQ-Gw-39">
          <mxGeometry x="-0.0625" y="-1" relative="1" as="geometry">
            <mxPoint x="570" y="1220.89" as="targetPoint" />
            <Array as="points">
              <mxPoint x="640" y="1221" />
            </Array>
            <mxPoint as="offset" />
          </mxGeometry>
        </mxCell>
        <mxCell id="OiqCpDL5XZ7efOoXQ-Gw-55" value="Master Formulir" style="html=1;dashed=0;whitespace=wrap;shape=partialRectangle;right=0;left=0;fontStyle=1" parent="1" vertex="1">
          <mxGeometry x="730" y="1203.89" width="100" height="34" as="geometry" />
        </mxCell>
        <mxCell id="cqjbYC5P1DjbwnzgqMl4-28" value="info_data_master_jabatan" style="edgeStyle=orthogonalEdgeStyle;rounded=0;orthogonalLoop=1;jettySize=auto;html=1;fontStyle=1" parent="1" source="OiqCpDL5XZ7efOoXQ-Gw-57" target="OiqCpDL5XZ7efOoXQ-Gw-39" edge="1">
          <mxGeometry x="-0.1822" y="1" relative="1" as="geometry">
            <Array as="points">
              <mxPoint x="590" y="1149.89" />
              <mxPoint x="590" y="1190.89" />
            </Array>
            <mxPoint as="offset" />
          </mxGeometry>
        </mxCell>
        <mxCell id="OiqCpDL5XZ7efOoXQ-Gw-57" value="Jabatan" style="html=1;dashed=0;whitespace=wrap;shape=partialRectangle;right=0;left=0;fontStyle=1" parent="1" vertex="1">
          <mxGeometry x="714" y="1132.89" width="100" height="34" as="geometry" />
        </mxCell>
        <mxCell id="cqjbYC5P1DjbwnzgqMl4-26" value="info_data_perusahaan" style="edgeStyle=orthogonalEdgeStyle;rounded=0;orthogonalLoop=1;jettySize=auto;html=1;entryX=0.843;entryY=0.12;entryDx=0;entryDy=0;entryPerimeter=0;fontStyle=1" parent="1" source="OiqCpDL5XZ7efOoXQ-Gw-59" target="OiqCpDL5XZ7efOoXQ-Gw-39" edge="1">
          <mxGeometry x="-0.1388" relative="1" as="geometry">
            <Array as="points">
              <mxPoint x="550" y="1077.95" />
              <mxPoint x="550" y="1136.95" />
            </Array>
            <mxPoint as="offset" />
          </mxGeometry>
        </mxCell>
        <mxCell id="OiqCpDL5XZ7efOoXQ-Gw-59" value="Perusahaan" style="html=1;dashed=0;whitespace=wrap;shape=partialRectangle;right=0;left=0;fontStyle=1" parent="1" vertex="1">
          <mxGeometry x="700" y="1060.89" width="100" height="34" as="geometry" />
        </mxCell>
        <mxCell id="MHDbr5eAJy24fqXW2VCL-43" value="Infor_data_pertanyaan" style="edgeStyle=orthogonalEdgeStyle;rounded=0;orthogonalLoop=1;jettySize=auto;html=1;fontStyle=1" parent="1" edge="1">
          <mxGeometry relative="1" as="geometry">
            <mxPoint x="-160" y="870" as="targetPoint" />
            <Array as="points">
              <mxPoint x="-270" y="870" />
              <mxPoint x="-160" y="870" />
            </Array>
            <mxPoint x="-280" y="890" as="sourcePoint" />
          </mxGeometry>
        </mxCell>
        <mxCell id="j1Ypt0l_bqrAoIXSdnt6-3" value="Pertanyaan" style="html=1;dashed=0;whitespace=wrap;shape=partialRectangle;right=0;left=0;fontStyle=1" parent="1" vertex="1">
          <mxGeometry x="-320" y="896" width="100" height="34" as="geometry" />
        </mxCell>
        <mxCell id="MHDbr5eAJy24fqXW2VCL-45" value="info_data_jawaban" style="edgeStyle=orthogonalEdgeStyle;rounded=0;orthogonalLoop=1;jettySize=auto;html=1;entryX=0.038;entryY=0.693;entryDx=0;entryDy=0;entryPerimeter=0;fontStyle=1" parent="1" source="j1Ypt0l_bqrAoIXSdnt6-4" target="OiqCpDL5XZ7efOoXQ-Gw-46" edge="1">
          <mxGeometry x="-0.2553" relative="1" as="geometry">
            <Array as="points">
              <mxPoint x="-270" y="970" />
              <mxPoint x="-180" y="970" />
              <mxPoint x="-180" y="890" />
            </Array>
            <mxPoint x="-160" y="890" as="targetPoint" />
            <mxPoint as="offset" />
          </mxGeometry>
        </mxCell>
        <mxCell id="j1Ypt0l_bqrAoIXSdnt6-4" value="Jawaban" style="html=1;dashed=0;whitespace=wrap;shape=partialRectangle;right=0;left=0;fontStyle=1" parent="1" vertex="1">
          <mxGeometry x="-324.32" y="990" width="100" height="34" as="geometry" />
        </mxCell>
        <mxCell id="cqjbYC5P1DjbwnzgqMl4-35" value="info_data_master_pertanyaan" style="edgeStyle=orthogonalEdgeStyle;rounded=0;orthogonalLoop=1;jettySize=auto;html=1;fontStyle=1" parent="1" source="cqjbYC5P1DjbwnzgqMl4-1" target="OiqCpDL5XZ7efOoXQ-Gw-39" edge="1">
          <mxGeometry x="-0.246" y="-2" relative="1" as="geometry">
            <Array as="points">
              <mxPoint x="540" y="1292.95" />
            </Array>
            <mxPoint as="offset" />
          </mxGeometry>
        </mxCell>
        <mxCell id="cqjbYC5P1DjbwnzgqMl4-1" value="Master Pertanyaan" style="html=1;dashed=0;whitespace=wrap;shape=partialRectangle;right=0;left=0;fontStyle=1" parent="1" vertex="1">
          <mxGeometry x="714" y="1274.94" width="100" height="34" as="geometry" />
        </mxCell>
        <mxCell id="cqjbYC5P1DjbwnzgqMl4-37" value="info_data_master_jawaban" style="edgeStyle=orthogonalEdgeStyle;rounded=0;orthogonalLoop=1;jettySize=auto;html=1;fontStyle=1" parent="1" source="cqjbYC5P1DjbwnzgqMl4-2" target="OiqCpDL5XZ7efOoXQ-Gw-39" edge="1">
          <mxGeometry x="-0.3215" relative="1" as="geometry">
            <Array as="points">
              <mxPoint x="520" y="1364" />
            </Array>
            <mxPoint as="offset" />
          </mxGeometry>
        </mxCell>
        <mxCell id="cqjbYC5P1DjbwnzgqMl4-2" value="Master Jawaban" style="html=1;dashed=0;whitespace=wrap;shape=partialRectangle;right=0;left=0;fontStyle=1" parent="1" vertex="1">
          <mxGeometry x="700" y="1346.89" width="100" height="34" as="geometry" />
        </mxCell>
        <mxCell id="iAnmKTyDdtcSxGajNDKb-7" value="data_lowongan" style="edgeStyle=orthogonalEdgeStyle;rounded=0;orthogonalLoop=1;jettySize=auto;html=1;jumpStyle=arc;fontStyle=1" edge="1" parent="1" source="OiqCpDL5XZ7efOoXQ-Gw-18" target="OiqCpDL5XZ7efOoXQ-Gw-28">
          <mxGeometry x="-0.4647" relative="1" as="geometry">
            <mxPoint x="320" y="760" as="targetPoint" />
            <Array as="points">
              <mxPoint x="120" y="1040" />
              <mxPoint x="290" y="1040" />
              <mxPoint x="290" y="780" />
              <mxPoint x="340" y="780" />
            </Array>
            <mxPoint as="offset" />
          </mxGeometry>
        </mxCell>
        <mxCell id="iAnmKTyDdtcSxGajNDKb-8" value="info_data_lowongan" style="edgeStyle=orthogonalEdgeStyle;rounded=0;orthogonalLoop=1;jettySize=auto;html=1;jumpStyle=arc;fontStyle=1" edge="1" parent="1" source="OiqCpDL5XZ7efOoXQ-Gw-28" target="OiqCpDL5XZ7efOoXQ-Gw-18">
          <mxGeometry x="0.5033" relative="1" as="geometry">
            <Array as="points">
              <mxPoint x="365" y="790" />
              <mxPoint x="300" y="790" />
              <mxPoint x="300" y="1060" />
              <mxPoint x="130" y="1060" />
            </Array>
            <mxPoint as="offset" />
          </mxGeometry>
        </mxCell>
      </root>
    </mxGraphModel>
  </diagram>
  <diagram id="9hbxpPOA0BtGEpYms985" name="DFD P.1">
    <mxGraphModel dx="1050" dy="-559" grid="1" gridSize="10" guides="1" tooltips="1" connect="1" arrows="1" fold="1" page="1" pageScale="1" pageWidth="850" pageHeight="1100" math="0" shadow="0">
      <root>
        <mxCell id="0" />
        <mxCell id="1" parent="0" />
        <mxCell id="ScGWnMRw8X9sYZ8dYsJT-1" value="data_user" style="edgeStyle=orthogonalEdgeStyle;rounded=0;orthogonalLoop=1;jettySize=auto;html=1;entryX=0.75;entryY=0;entryDx=0;entryDy=0;" parent="1" source="ScGWnMRw8X9sYZ8dYsJT-2" target="ScGWnMRw8X9sYZ8dYsJT-11" edge="1">
          <mxGeometry x="-0.4222" relative="1" as="geometry">
            <Array as="points">
              <mxPoint x="555" y="1750" />
            </Array>
            <mxPoint as="offset" />
            <mxPoint x="545" y="1780" as="targetPoint" />
          </mxGeometry>
        </mxCell>
        <mxCell id="ScGWnMRw8X9sYZ8dYsJT-2" value="&lt;div&gt;P.1.1&lt;/div&gt;&lt;div&gt;Login Sebagai Pelamar&lt;br&gt;&lt;/div&gt;" style="ellipse;whiteSpace=wrap;html=1;aspect=fixed;" parent="1" vertex="1">
          <mxGeometry x="280" y="1700" width="90" height="90" as="geometry" />
        </mxCell>
        <mxCell id="ScGWnMRw8X9sYZ8dYsJT-3" value="data_user" style="edgeStyle=orthogonalEdgeStyle;rounded=0;orthogonalLoop=1;jettySize=auto;html=1;" parent="1" source="ScGWnMRw8X9sYZ8dYsJT-5" target="ScGWnMRw8X9sYZ8dYsJT-11" edge="1">
          <mxGeometry x="-0.1892" relative="1" as="geometry">
            <Array as="points">
              <mxPoint x="500" y="1936" />
            </Array>
            <mxPoint as="offset" />
          </mxGeometry>
        </mxCell>
        <mxCell id="ScGWnMRw8X9sYZ8dYsJT-4" value="&lt;span style=&quot;color: rgb(0, 0, 0); font-family: Helvetica; font-size: 11px; font-style: normal; font-variant-ligatures: normal; font-variant-caps: normal; font-weight: 400; letter-spacing: normal; orphans: 2; text-align: center; text-indent: 0px; text-transform: none; widows: 2; word-spacing: 0px; -webkit-text-stroke-width: 0px; background-color: rgb(255, 255, 255); text-decoration-thickness: initial; text-decoration-style: initial; text-decoration-color: initial; float: none; display: inline !important;&quot;&gt;info_data_user&lt;/span&gt;" style="edgeStyle=orthogonalEdgeStyle;rounded=0;orthogonalLoop=1;jettySize=auto;html=1;entryX=0.5;entryY=1;entryDx=0;entryDy=0;exitX=0;exitY=0.5;exitDx=0;exitDy=0;" parent="1" source="ScGWnMRw8X9sYZ8dYsJT-21" target="ScGWnMRw8X9sYZ8dYsJT-13" edge="1">
          <mxGeometry x="-0.0045" relative="1" as="geometry">
            <Array as="points">
              <mxPoint x="90" y="2055" />
            </Array>
            <mxPoint as="offset" />
          </mxGeometry>
        </mxCell>
        <mxCell id="ScGWnMRw8X9sYZ8dYsJT-5" value="&lt;div&gt;P.1.3&lt;/div&gt;&lt;div&gt;Login Sebagai Superuser&lt;br&gt;&lt;/div&gt;" style="ellipse;whiteSpace=wrap;html=1;aspect=fixed;" parent="1" vertex="1">
          <mxGeometry x="280" y="1900" width="90" height="90" as="geometry" />
        </mxCell>
        <mxCell id="ScGWnMRw8X9sYZ8dYsJT-6" value="data_user" style="edgeStyle=orthogonalEdgeStyle;rounded=0;orthogonalLoop=1;jettySize=auto;html=1;entryX=0.4;entryY=1.005;entryDx=0;entryDy=0;entryPerimeter=0;" parent="1" source="ScGWnMRw8X9sYZ8dYsJT-7" target="ScGWnMRw8X9sYZ8dYsJT-11" edge="1">
          <mxGeometry x="-0.3809" relative="1" as="geometry">
            <Array as="points">
              <mxPoint x="520" y="2150" />
            </Array>
            <mxPoint as="offset" />
            <mxPoint x="520" y="2030" as="targetPoint" />
          </mxGeometry>
        </mxCell>
        <mxCell id="ScGWnMRw8X9sYZ8dYsJT-7" value="&lt;div&gt;P.1.5&lt;/div&gt;&lt;div&gt;Login Sebagai Petugas&amp;nbsp;&lt;br&gt;&lt;/div&gt;SDM" style="ellipse;whiteSpace=wrap;html=1;aspect=fixed;" parent="1" vertex="1">
          <mxGeometry x="280" y="2119.99" width="90" height="90" as="geometry" />
        </mxCell>
        <mxCell id="ScGWnMRw8X9sYZ8dYsJT-8" value="info_data_user" style="edgeStyle=orthogonalEdgeStyle;rounded=0;orthogonalLoop=1;jettySize=auto;html=1;entryX=1;entryY=0.556;entryDx=0;entryDy=0;exitX=0.25;exitY=0;exitDx=0;exitDy=0;entryPerimeter=0;" parent="1" source="ScGWnMRw8X9sYZ8dYsJT-11" target="ScGWnMRw8X9sYZ8dYsJT-20" edge="1">
          <mxGeometry x="0.4042" relative="1" as="geometry">
            <Array as="points">
              <mxPoint x="520" y="1990" />
              <mxPoint x="520" y="1850" />
            </Array>
            <mxPoint as="offset" />
            <mxPoint x="510" y="1780" as="sourcePoint" />
          </mxGeometry>
        </mxCell>
        <mxCell id="ScGWnMRw8X9sYZ8dYsJT-9" value="info_data_user" style="edgeStyle=orthogonalEdgeStyle;rounded=0;orthogonalLoop=1;jettySize=auto;html=1;entryX=1;entryY=0.5;entryDx=0;entryDy=0;" parent="1" source="ScGWnMRw8X9sYZ8dYsJT-11" target="ScGWnMRw8X9sYZ8dYsJT-21" edge="1">
          <mxGeometry x="0.4018" relative="1" as="geometry">
            <Array as="points">
              <mxPoint x="500" y="2055" />
            </Array>
            <mxPoint as="offset" />
          </mxGeometry>
        </mxCell>
        <mxCell id="ScGWnMRw8X9sYZ8dYsJT-10" value="info_data_user" style="edgeStyle=orthogonalEdgeStyle;rounded=0;orthogonalLoop=1;jettySize=auto;html=1;entryX=1;entryY=0.5;entryDx=0;entryDy=0;exitX=0.75;exitY=1;exitDx=0;exitDy=0;" parent="1" source="ScGWnMRw8X9sYZ8dYsJT-11" target="ScGWnMRw8X9sYZ8dYsJT-22" edge="1">
          <mxGeometry x="0.4863" relative="1" as="geometry">
            <Array as="points">
              <mxPoint x="555" y="2265" />
            </Array>
            <mxPoint as="offset" />
            <mxPoint x="560.0588235294117" y="2050.99" as="sourcePoint" />
          </mxGeometry>
        </mxCell>
        <mxCell id="ScGWnMRw8X9sYZ8dYsJT-11" value="User" style="html=1;dashed=0;whitespace=wrap;shape=partialRectangle;right=0;left=0;" parent="1" vertex="1">
          <mxGeometry x="480" y="1990" width="100" height="31" as="geometry" />
        </mxCell>
        <mxCell id="ScGWnMRw8X9sYZ8dYsJT-12" value="data_user" style="edgeStyle=orthogonalEdgeStyle;rounded=0;orthogonalLoop=1;jettySize=auto;html=1;" parent="1" source="ScGWnMRw8X9sYZ8dYsJT-13" target="ScGWnMRw8X9sYZ8dYsJT-5" edge="1">
          <mxGeometry x="-0.0789" relative="1" as="geometry">
            <Array as="points">
              <mxPoint x="260" y="1940" />
              <mxPoint x="260" y="1940" />
            </Array>
            <mxPoint as="offset" />
          </mxGeometry>
        </mxCell>
        <mxCell id="ScGWnMRw8X9sYZ8dYsJT-13" value="SUPER USER" style="rounded=0;whiteSpace=wrap;html=1;" parent="1" vertex="1">
          <mxGeometry x="30" y="1970" width="120" height="60" as="geometry" />
        </mxCell>
        <mxCell id="ScGWnMRw8X9sYZ8dYsJT-14" value="data_user" style="edgeStyle=orthogonalEdgeStyle;rounded=0;orthogonalLoop=1;jettySize=auto;html=1;" parent="1" source="ScGWnMRw8X9sYZ8dYsJT-15" target="ScGWnMRw8X9sYZ8dYsJT-7" edge="1">
          <mxGeometry x="0.056" relative="1" as="geometry">
            <Array as="points">
              <mxPoint x="240" y="2149.99" />
              <mxPoint x="240" y="2149.99" />
            </Array>
            <mxPoint as="offset" />
          </mxGeometry>
        </mxCell>
        <mxCell id="ScGWnMRw8X9sYZ8dYsJT-15" value="PETUGAS SDM" style="rounded=0;whiteSpace=wrap;html=1;" parent="1" vertex="1">
          <mxGeometry x="30" y="2170" width="120" height="60" as="geometry" />
        </mxCell>
        <mxCell id="ScGWnMRw8X9sYZ8dYsJT-16" value="data_user" style="edgeStyle=orthogonalEdgeStyle;rounded=0;orthogonalLoop=1;jettySize=auto;html=1;" parent="1" source="ScGWnMRw8X9sYZ8dYsJT-17" target="ScGWnMRw8X9sYZ8dYsJT-2" edge="1">
          <mxGeometry x="0.0769" relative="1" as="geometry">
            <Array as="points">
              <mxPoint x="90" y="1740" />
            </Array>
            <mxPoint as="offset" />
          </mxGeometry>
        </mxCell>
        <mxCell id="ScGWnMRw8X9sYZ8dYsJT-17" value="PELAMAR" style="rounded=0;whiteSpace=wrap;html=1;" parent="1" vertex="1">
          <mxGeometry x="30" y="1760" width="120" height="60" as="geometry" />
        </mxCell>
        <mxCell id="ScGWnMRw8X9sYZ8dYsJT-18" value="&lt;span style=&quot;color: rgb(0, 0, 0); font-family: Helvetica; font-size: 11px; font-style: normal; font-variant-ligatures: normal; font-variant-caps: normal; font-weight: 400; letter-spacing: normal; orphans: 2; text-align: center; text-indent: 0px; text-transform: none; widows: 2; word-spacing: 0px; -webkit-text-stroke-width: 0px; background-color: rgb(255, 255, 255); text-decoration-thickness: initial; text-decoration-style: initial; text-decoration-color: initial; float: none; display: inline !important;&quot;&gt;info_data_user&lt;/span&gt;" style="edgeStyle=orthogonalEdgeStyle;rounded=0;orthogonalLoop=1;jettySize=auto;html=1;entryX=0.5;entryY=1;entryDx=0;entryDy=0;" parent="1" source="ScGWnMRw8X9sYZ8dYsJT-20" target="ScGWnMRw8X9sYZ8dYsJT-17" edge="1">
          <mxGeometry x="-0.1909" relative="1" as="geometry">
            <mxPoint x="295" y="1835" as="sourcePoint" />
            <mxPoint x="160" y="1835" as="targetPoint" />
            <Array as="points">
              <mxPoint x="90" y="1845" />
            </Array>
            <mxPoint as="offset" />
          </mxGeometry>
        </mxCell>
        <mxCell id="ScGWnMRw8X9sYZ8dYsJT-19" value="&lt;span style=&quot;color: rgb(0, 0, 0); font-family: Helvetica; font-size: 11px; font-style: normal; font-variant-ligatures: normal; font-variant-caps: normal; font-weight: 400; letter-spacing: normal; orphans: 2; text-align: center; text-indent: 0px; text-transform: none; widows: 2; word-spacing: 0px; -webkit-text-stroke-width: 0px; background-color: rgb(255, 255, 255); text-decoration-thickness: initial; text-decoration-style: initial; text-decoration-color: initial; float: none; display: inline !important;&quot;&gt;info_data_user&lt;/span&gt;" style="edgeStyle=orthogonalEdgeStyle;rounded=0;orthogonalLoop=1;jettySize=auto;html=1;entryX=0.5;entryY=1;entryDx=0;entryDy=0;exitX=0;exitY=0.5;exitDx=0;exitDy=0;" parent="1" source="ScGWnMRw8X9sYZ8dYsJT-22" target="ScGWnMRw8X9sYZ8dYsJT-15" edge="1">
          <mxGeometry relative="1" as="geometry">
            <mxPoint x="270" y="2179.99" as="sourcePoint" />
            <mxPoint x="150" y="2179.99" as="targetPoint" />
            <Array as="points">
              <mxPoint x="90" y="2265" />
            </Array>
          </mxGeometry>
        </mxCell>
        <mxCell id="ScGWnMRw8X9sYZ8dYsJT-20" value="&lt;div&gt;P.1.2&lt;/div&gt;&lt;div&gt;Tampil Login Pelamar&lt;br&gt;&lt;/div&gt;" style="ellipse;whiteSpace=wrap;html=1;aspect=fixed;" parent="1" vertex="1">
          <mxGeometry x="280" y="1800" width="90" height="90" as="geometry" />
        </mxCell>
        <mxCell id="ScGWnMRw8X9sYZ8dYsJT-21" value="&lt;div&gt;P.1.4&lt;/div&gt;&lt;div&gt;Tampil Login Superuser&lt;br&gt;&lt;/div&gt;" style="ellipse;whiteSpace=wrap;html=1;aspect=fixed;" parent="1" vertex="1">
          <mxGeometry x="280" y="2010" width="90" height="90" as="geometry" />
        </mxCell>
        <mxCell id="ScGWnMRw8X9sYZ8dYsJT-22" value="&lt;div&gt;P.1.6&lt;/div&gt;&lt;div&gt;Tampil Login&amp;nbsp; Petugas&amp;nbsp;&lt;br&gt;&lt;/div&gt;SDM" style="ellipse;whiteSpace=wrap;html=1;aspect=fixed;" parent="1" vertex="1">
          <mxGeometry x="280" y="2220" width="90" height="90" as="geometry" />
        </mxCell>
      </root>
    </mxGraphModel>
  </diagram>
  <diagram id="1IB4AwNP5YnpaF0koFCx" name="DFD P.2">
    <mxGraphModel dx="1050" dy="-1659" grid="1" gridSize="10" guides="1" tooltips="1" connect="1" arrows="1" fold="1" page="1" pageScale="1" pageWidth="850" pageHeight="1100" math="0" shadow="0">
      <root>
        <mxCell id="0" />
        <mxCell id="1" parent="0" />
        <mxCell id="m243ZBx2ZPKGvdklahfC-1" value="data_lowongan" style="edgeStyle=orthogonalEdgeStyle;rounded=0;orthogonalLoop=1;jettySize=auto;html=1;" parent="1" source="m243ZBx2ZPKGvdklahfC-3" target="m243ZBx2ZPKGvdklahfC-5" edge="1">
          <mxGeometry x="-0.0772" relative="1" as="geometry">
            <mxPoint as="offset" />
            <mxPoint x="449.9999692212882" y="2465.0526315789475" as="sourcePoint" />
            <Array as="points">
              <mxPoint x="430" y="2470" />
              <mxPoint x="550" y="2470" />
            </Array>
          </mxGeometry>
        </mxCell>
        <mxCell id="m243ZBx2ZPKGvdklahfC-2" value="data lowongan" style="edgeStyle=orthogonalEdgeStyle;rounded=0;orthogonalLoop=1;jettySize=auto;html=1;entryX=0.5;entryY=0;entryDx=0;entryDy=0;exitX=0.5;exitY=0;exitDx=0;exitDy=0;" parent="1" source="m243ZBx2ZPKGvdklahfC-3" target="m243ZBx2ZPKGvdklahfC-5" edge="1">
          <mxGeometry x="-0.2176" relative="1" as="geometry">
            <Array as="points">
              <mxPoint x="420" y="2360" />
              <mxPoint x="420" y="2340" />
              <mxPoint x="580" y="2340" />
            </Array>
            <mxPoint as="offset" />
          </mxGeometry>
        </mxCell>
        <mxCell id="m243ZBx2ZPKGvdklahfC-3" value="&lt;div&gt;P.2.1&lt;/div&gt;&lt;div&gt;Kelola Data&lt;/div&gt;&lt;div&gt;&amp;nbsp;Lowongan&lt;br&gt;&lt;/div&gt;" style="ellipse;whiteSpace=wrap;html=1;aspect=fixed;" parent="1" vertex="1">
          <mxGeometry x="370" y="2360" width="90" height="90" as="geometry" />
        </mxCell>
        <mxCell id="m243ZBx2ZPKGvdklahfC-4" value="info_data_lowongan" style="edgeStyle=orthogonalEdgeStyle;rounded=0;orthogonalLoop=1;jettySize=auto;html=1;" parent="1" source="m243ZBx2ZPKGvdklahfC-5" target="m243ZBx2ZPKGvdklahfC-15" edge="1">
          <mxGeometry x="0.0969" relative="1" as="geometry">
            <Array as="points">
              <mxPoint x="580" y="2565" />
            </Array>
            <mxPoint as="offset" />
          </mxGeometry>
        </mxCell>
        <mxCell id="m243ZBx2ZPKGvdklahfC-5" value="Lowongan" style="html=1;dashed=0;whitespace=wrap;shape=partialRectangle;right=0;left=0;" parent="1" vertex="1">
          <mxGeometry x="530" y="2500" width="100" height="30" as="geometry" />
        </mxCell>
        <mxCell id="m243ZBx2ZPKGvdklahfC-6" value="data_lowongan" style="edgeStyle=orthogonalEdgeStyle;rounded=0;orthogonalLoop=1;jettySize=auto;html=1;" parent="1" source="m243ZBx2ZPKGvdklahfC-7" target="m243ZBx2ZPKGvdklahfC-3" edge="1">
          <mxGeometry x="-0.5507" relative="1" as="geometry">
            <mxPoint as="offset" />
            <Array as="points">
              <mxPoint x="323" y="2440" />
              <mxPoint x="323" y="2470" />
              <mxPoint x="400" y="2470" />
            </Array>
            <mxPoint x="362.5735931288068" y="2450.0000000000005" as="targetPoint" />
          </mxGeometry>
        </mxCell>
        <mxCell id="m243ZBx2ZPKGvdklahfC-7" value="PETUGAS SDM" style="rounded=0;whiteSpace=wrap;html=1;" parent="1" vertex="1">
          <mxGeometry x="110" y="2420" width="120" height="60" as="geometry" />
        </mxCell>
        <mxCell id="m243ZBx2ZPKGvdklahfC-8" value="data_lowongan" style="edgeStyle=orthogonalEdgeStyle;rounded=0;orthogonalLoop=1;jettySize=auto;html=1;" parent="1" source="m243ZBx2ZPKGvdklahfC-9" target="m243ZBx2ZPKGvdklahfC-3" edge="1">
          <mxGeometry x="-0.1176" relative="1" as="geometry">
            <Array as="points">
              <mxPoint x="410" y="2340" />
            </Array>
            <mxPoint as="offset" />
          </mxGeometry>
        </mxCell>
        <mxCell id="m243ZBx2ZPKGvdklahfC-9" value="SUPER USER" style="rounded=0;whiteSpace=wrap;html=1;" parent="1" vertex="1">
          <mxGeometry x="110" y="2310" width="120" height="60" as="geometry" />
        </mxCell>
        <mxCell id="m243ZBx2ZPKGvdklahfC-10" value="PELAMAR" style="rounded=0;whiteSpace=wrap;html=1;" parent="1" vertex="1">
          <mxGeometry x="110" y="2550" width="120" height="60" as="geometry" />
        </mxCell>
        <mxCell id="m243ZBx2ZPKGvdklahfC-11" value="Info_data_lowongan" style="edgeStyle=orthogonalEdgeStyle;rounded=0;orthogonalLoop=1;jettySize=auto;html=1;entryX=0;entryY=0.5;entryDx=0;entryDy=0;exitX=0.083;exitY=0.284;exitDx=0;exitDy=0;exitPerimeter=0;" parent="1" source="m243ZBx2ZPKGvdklahfC-15" target="m243ZBx2ZPKGvdklahfC-9" edge="1">
          <mxGeometry x="-0.0324" relative="1" as="geometry">
            <Array as="points">
              <mxPoint x="378" y="2530" />
              <mxPoint x="90" y="2530" />
              <mxPoint x="90" y="2340" />
            </Array>
            <mxPoint as="offset" />
          </mxGeometry>
        </mxCell>
        <mxCell id="m243ZBx2ZPKGvdklahfC-12" value="&lt;span style=&quot;color: rgb(0, 0, 0); font-family: Helvetica; font-size: 11px; font-style: normal; font-variant-ligatures: normal; font-variant-caps: normal; font-weight: 400; letter-spacing: normal; orphans: 2; text-align: center; text-indent: 0px; text-transform: none; widows: 2; word-spacing: 0px; -webkit-text-stroke-width: 0px; background-color: rgb(255, 255, 255); text-decoration-thickness: initial; text-decoration-style: initial; text-decoration-color: initial; float: none; display: inline !important;&quot;&gt;Info_data_lowongan&lt;/span&gt;&lt;br&gt;" style="edgeStyle=orthogonalEdgeStyle;rounded=0;orthogonalLoop=1;jettySize=auto;html=1;entryX=0.5;entryY=1;entryDx=0;entryDy=0;" parent="1" source="m243ZBx2ZPKGvdklahfC-15" target="m243ZBx2ZPKGvdklahfC-7" edge="1">
          <mxGeometry x="0.3898" relative="1" as="geometry">
            <Array as="points">
              <mxPoint x="415" y="2510" />
              <mxPoint x="170" y="2510" />
            </Array>
            <mxPoint as="offset" />
          </mxGeometry>
        </mxCell>
        <mxCell id="m243ZBx2ZPKGvdklahfC-13" style="edgeStyle=orthogonalEdgeStyle;rounded=0;orthogonalLoop=1;jettySize=auto;html=1;entryX=1;entryY=0.5;entryDx=0;entryDy=0;" parent="1" source="m243ZBx2ZPKGvdklahfC-15" target="m243ZBx2ZPKGvdklahfC-10" edge="1">
          <mxGeometry relative="1" as="geometry">
            <Array as="points">
              <mxPoint x="340" y="2580" />
              <mxPoint x="340" y="2580" />
            </Array>
          </mxGeometry>
        </mxCell>
        <mxCell id="m243ZBx2ZPKGvdklahfC-14" value="Info_data_lowongan" style="edgeLabel;html=1;align=center;verticalAlign=middle;resizable=0;points=[];" parent="m243ZBx2ZPKGvdklahfC-13" vertex="1" connectable="0">
          <mxGeometry x="0.2139" y="-1" relative="1" as="geometry">
            <mxPoint x="25" y="1" as="offset" />
          </mxGeometry>
        </mxCell>
        <mxCell id="m243ZBx2ZPKGvdklahfC-15" value="&lt;div&gt;P.2.2&lt;/div&gt;&lt;div&gt;Tampil Info&lt;/div&gt;&lt;div&gt;Lowongan&lt;br&gt;&lt;/div&gt;" style="ellipse;whiteSpace=wrap;html=1;aspect=fixed;" parent="1" vertex="1">
          <mxGeometry x="370" y="2530" width="90" height="90" as="geometry" />
        </mxCell>
      </root>
    </mxGraphModel>
  </diagram>
  <diagram id="1tn9RLZDfE0GdQyoEkj6" name="DFD P.3">
    <mxGraphModel dx="1050" dy="-1659" grid="1" gridSize="10" guides="1" tooltips="1" connect="1" arrows="1" fold="1" page="1" pageScale="1" pageWidth="850" pageHeight="1100" math="0" shadow="0">
      <root>
        <mxCell id="0" />
        <mxCell id="1" parent="0" />
        <mxCell id="PtQgzfgAQ1HUSDY9jaW--1" value="data_perusahaan" style="edgeStyle=orthogonalEdgeStyle;rounded=0;orthogonalLoop=1;jettySize=auto;html=1;entryX=0;entryY=0.5;entryDx=0;entryDy=0;fontSize=13;fontStyle=1" parent="1" source="c8jW9gXde2niZwLbmy8M-2" target="c8jW9gXde2niZwLbmy8M-4" edge="1">
          <mxGeometry x="-0.3941" y="20" relative="1" as="geometry">
            <Array as="points">
              <mxPoint x="390" y="2775" />
            </Array>
            <mxPoint x="-20" y="20" as="offset" />
          </mxGeometry>
        </mxCell>
        <mxCell id="c8jW9gXde2niZwLbmy8M-2" value="&lt;div style=&quot;font-size: 13px;&quot;&gt;P.3.1&lt;/div&gt;&lt;div style=&quot;font-size: 13px;&quot;&gt;Kelola Data&lt;/div&gt;&lt;div style=&quot;font-size: 13px;&quot;&gt;&amp;nbsp;Perusahaan&lt;br style=&quot;font-size: 13px;&quot;&gt;&lt;/div&gt;" style="ellipse;whiteSpace=wrap;html=1;aspect=fixed;fontSize=13;fontStyle=1" parent="1" vertex="1">
          <mxGeometry x="335" y="2800" width="90" height="90" as="geometry" />
        </mxCell>
        <mxCell id="PtQgzfgAQ1HUSDY9jaW--2" value="info_data_perusahaan" style="edgeStyle=orthogonalEdgeStyle;rounded=0;orthogonalLoop=1;jettySize=auto;html=1;fontSize=13;fontStyle=1" parent="1" source="c8jW9gXde2niZwLbmy8M-4" target="c8jW9gXde2niZwLbmy8M-13" edge="1">
          <mxGeometry x="0.5" relative="1" as="geometry">
            <mxPoint as="offset" />
          </mxGeometry>
        </mxCell>
        <mxCell id="c8jW9gXde2niZwLbmy8M-4" value="Perusahaan" style="html=1;dashed=0;whitespace=wrap;shape=partialRectangle;right=0;left=0;fontSize=12;fontStyle=1" parent="1" vertex="1">
          <mxGeometry x="450" y="2760" width="100" height="30" as="geometry" />
        </mxCell>
        <mxCell id="kWzDlRxsoz6j9Fi_HSD--12" value="&lt;span style=&quot;color: rgb(0, 0, 0); font-family: Helvetica; font-size: 13px; font-style: normal; font-variant-ligatures: normal; font-variant-caps: normal; letter-spacing: normal; orphans: 2; text-align: center; text-indent: 0px; text-transform: none; widows: 2; word-spacing: 0px; -webkit-text-stroke-width: 0px; background-color: rgb(255, 255, 255); text-decoration-thickness: initial; text-decoration-style: initial; text-decoration-color: initial; float: none; display: inline !important;&quot;&gt;data_master_formulir&lt;/span&gt;" style="edgeStyle=orthogonalEdgeStyle;rounded=0;orthogonalLoop=1;jettySize=auto;html=1;entryX=0.534;entryY=-0.004;entryDx=0;entryDy=0;entryPerimeter=0;jumpStyle=arc;fontSize=13;fontStyle=1" parent="1" source="c8jW9gXde2niZwLbmy8M-7" target="c8jW9gXde2niZwLbmy8M-20" edge="1">
          <mxGeometry x="-0.7254" relative="1" as="geometry">
            <mxPoint x="380" y="3280" as="targetPoint" />
            <Array as="points">
              <mxPoint x="690" y="3240" />
              <mxPoint x="690" y="3320" />
              <mxPoint x="377" y="3320" />
            </Array>
            <mxPoint as="offset" />
          </mxGeometry>
        </mxCell>
        <mxCell id="kWzDlRxsoz6j9Fi_HSD--17" value="&lt;span style=&quot;color: rgb(0, 0, 0); font-family: Helvetica; font-size: 13px; font-style: normal; font-variant-ligatures: normal; font-variant-caps: normal; letter-spacing: normal; orphans: 2; text-align: center; text-indent: 0px; text-transform: none; widows: 2; word-spacing: 0px; -webkit-text-stroke-width: 0px; background-color: rgb(255, 255, 255); text-decoration-thickness: initial; text-decoration-style: initial; text-decoration-color: initial; float: none; display: inline !important;&quot;&gt;data_jabatan&lt;/span&gt;" style="edgeStyle=orthogonalEdgeStyle;rounded=0;orthogonalLoop=1;jettySize=auto;html=1;fontSize=13;fontStyle=1" parent="1" source="c8jW9gXde2niZwLbmy8M-7" target="c8jW9gXde2niZwLbmy8M-16" edge="1">
          <mxGeometry x="-0.5088" relative="1" as="geometry">
            <Array as="points">
              <mxPoint x="840" y="3130" />
              <mxPoint x="380" y="3130" />
            </Array>
            <mxPoint as="offset" />
          </mxGeometry>
        </mxCell>
        <mxCell id="kWzDlRxsoz6j9Fi_HSD--26" value="&lt;span style=&quot;color: rgb(0, 0, 0); font-family: Helvetica; font-size: 13px; font-style: normal; font-variant-ligatures: normal; font-variant-caps: normal; letter-spacing: normal; orphans: 2; text-align: center; text-indent: 0px; text-transform: none; widows: 2; word-spacing: 0px; -webkit-text-stroke-width: 0px; background-color: rgb(255, 255, 255); text-decoration-thickness: initial; text-decoration-style: initial; text-decoration-color: initial; float: none; display: inline !important;&quot;&gt;data_perusahaan&lt;/span&gt;" style="edgeStyle=orthogonalEdgeStyle;rounded=0;orthogonalLoop=1;jettySize=auto;html=1;entryX=0.5;entryY=1;entryDx=0;entryDy=0;jumpStyle=arc;fontSize=13;fontStyle=1" parent="1" source="c8jW9gXde2niZwLbmy8M-7" target="c8jW9gXde2niZwLbmy8M-2" edge="1">
          <mxGeometry x="-0.1605" relative="1" as="geometry">
            <Array as="points">
              <mxPoint x="890" y="2940" />
              <mxPoint x="380" y="2940" />
            </Array>
            <mxPoint as="offset" />
          </mxGeometry>
        </mxCell>
        <mxCell id="kWzDlRxsoz6j9Fi_HSD--34" value="&lt;span style=&quot;color: rgb(0, 0, 0); font-family: Helvetica; font-size: 13px; font-style: normal; font-variant-ligatures: normal; font-variant-caps: normal; letter-spacing: normal; orphans: 2; text-align: center; text-indent: 0px; text-transform: none; widows: 2; word-spacing: 0px; -webkit-text-stroke-width: 0px; background-color: rgb(255, 255, 255); text-decoration-thickness: initial; text-decoration-style: initial; text-decoration-color: initial; float: none; display: inline !important;&quot;&gt;data_master_pertanyaan&lt;/span&gt;" style="edgeStyle=orthogonalEdgeStyle;rounded=0;orthogonalLoop=1;jettySize=auto;html=1;entryX=0.5;entryY=1;entryDx=0;entryDy=0;fontSize=13;fontStyle=1" parent="1" source="c8jW9gXde2niZwLbmy8M-7" target="T0cU86BpY5sJV5J4BKLJ-1" edge="1">
          <mxGeometry x="-0.1139" relative="1" as="geometry">
            <Array as="points">
              <mxPoint x="880" y="3500" />
              <mxPoint x="380" y="3500" />
            </Array>
            <mxPoint as="offset" />
          </mxGeometry>
        </mxCell>
        <mxCell id="kWzDlRxsoz6j9Fi_HSD--41" value="&lt;span style=&quot;color: rgb(0, 0, 0); font-family: Helvetica; font-size: 13px; font-style: normal; font-variant-ligatures: normal; font-variant-caps: normal; letter-spacing: normal; orphans: 2; text-align: center; text-indent: 0px; text-transform: none; widows: 2; word-spacing: 0px; -webkit-text-stroke-width: 0px; background-color: rgb(255, 255, 255); text-decoration-thickness: initial; text-decoration-style: initial; text-decoration-color: initial; float: none; display: inline !important;&quot;&gt;data_master_jawaban&lt;/span&gt;" style="edgeStyle=orthogonalEdgeStyle;rounded=0;orthogonalLoop=1;jettySize=auto;html=1;entryX=0.5;entryY=1;entryDx=0;entryDy=0;fontSize=13;fontStyle=1" parent="1" source="c8jW9gXde2niZwLbmy8M-7" target="T0cU86BpY5sJV5J4BKLJ-4" edge="1">
          <mxGeometry relative="1" as="geometry">
            <Array as="points">
              <mxPoint x="940" y="3710" />
              <mxPoint x="380" y="3710" />
            </Array>
          </mxGeometry>
        </mxCell>
        <mxCell id="c8jW9gXde2niZwLbmy8M-7" value="PETUGAS SDM" style="rounded=0;whiteSpace=wrap;html=1;fontSize=13;fontStyle=1" parent="1" vertex="1">
          <mxGeometry x="830" y="3190" width="120" height="60" as="geometry" />
        </mxCell>
        <mxCell id="kWzDlRxsoz6j9Fi_HSD--6" value="&lt;span style=&quot;color: rgb(0, 0, 0); font-family: Helvetica; font-size: 13px; font-style: normal; font-variant-ligatures: normal; font-variant-caps: normal; letter-spacing: normal; orphans: 2; text-align: center; text-indent: 0px; text-transform: none; widows: 2; word-spacing: 0px; -webkit-text-stroke-width: 0px; background-color: rgb(255, 255, 255); text-decoration-thickness: initial; text-decoration-style: initial; text-decoration-color: initial; float: none; display: inline !important;&quot;&gt;data_master_formulir&lt;/span&gt;" style="edgeStyle=orthogonalEdgeStyle;rounded=0;orthogonalLoop=1;jettySize=auto;html=1;fontSize=13;fontStyle=1" parent="1" source="c8jW9gXde2niZwLbmy8M-11" target="c8jW9gXde2niZwLbmy8M-20" edge="1">
          <mxGeometry relative="1" as="geometry">
            <Array as="points">
              <mxPoint x="250" y="3210" />
              <mxPoint x="250" y="3210" />
            </Array>
          </mxGeometry>
        </mxCell>
        <mxCell id="kWzDlRxsoz6j9Fi_HSD--15" value="&lt;span style=&quot;color: rgb(0, 0, 0); font-family: Helvetica; font-size: 13px; font-style: normal; font-variant-ligatures: normal; font-variant-caps: normal; letter-spacing: normal; orphans: 2; text-align: center; text-indent: 0px; text-transform: none; widows: 2; word-spacing: 0px; -webkit-text-stroke-width: 0px; background-color: rgb(255, 255, 255); text-decoration-thickness: initial; text-decoration-style: initial; text-decoration-color: initial; float: none; display: inline !important;&quot;&gt;data_jabatan&lt;/span&gt;" style="edgeStyle=orthogonalEdgeStyle;rounded=0;orthogonalLoop=1;jettySize=auto;html=1;entryX=0;entryY=0.5;entryDx=0;entryDy=0;fontSize=13;fontStyle=1" parent="1" source="c8jW9gXde2niZwLbmy8M-11" target="c8jW9gXde2niZwLbmy8M-16" edge="1">
          <mxGeometry x="0.2645" relative="1" as="geometry">
            <Array as="points">
              <mxPoint x="130" y="3035" />
            </Array>
            <mxPoint as="offset" />
          </mxGeometry>
        </mxCell>
        <mxCell id="kWzDlRxsoz6j9Fi_HSD--23" value="&lt;span style=&quot;color: rgb(0, 0, 0); font-family: Helvetica; font-size: 13px; font-style: normal; font-variant-ligatures: normal; font-variant-caps: normal; letter-spacing: normal; orphans: 2; text-align: center; text-indent: 0px; text-transform: none; widows: 2; word-spacing: 0px; -webkit-text-stroke-width: 0px; background-color: rgb(255, 255, 255); text-decoration-thickness: initial; text-decoration-style: initial; text-decoration-color: initial; float: none; display: inline !important;&quot;&gt;data_perusahaan&lt;/span&gt;" style="edgeStyle=orthogonalEdgeStyle;rounded=0;orthogonalLoop=1;jettySize=auto;html=1;entryX=0;entryY=0.5;entryDx=0;entryDy=0;fontSize=13;fontStyle=1" parent="1" source="c8jW9gXde2niZwLbmy8M-11" target="c8jW9gXde2niZwLbmy8M-2" edge="1">
          <mxGeometry x="0.3729" y="-5" relative="1" as="geometry">
            <Array as="points">
              <mxPoint x="70" y="2845" />
            </Array>
            <mxPoint as="offset" />
          </mxGeometry>
        </mxCell>
        <mxCell id="kWzDlRxsoz6j9Fi_HSD--30" value="&lt;span style=&quot;color: rgb(0, 0, 0); font-family: Helvetica; font-size: 13px; font-style: normal; font-variant-ligatures: normal; font-variant-caps: normal; letter-spacing: normal; orphans: 2; text-align: center; text-indent: 0px; text-transform: none; widows: 2; word-spacing: 0px; -webkit-text-stroke-width: 0px; background-color: rgb(255, 255, 255); text-decoration-thickness: initial; text-decoration-style: initial; text-decoration-color: initial; float: none; display: inline !important;&quot;&gt;data_master_pertanyaan&lt;/span&gt;" style="edgeStyle=orthogonalEdgeStyle;rounded=0;orthogonalLoop=1;jettySize=auto;html=1;fontSize=13;fontStyle=1" parent="1" source="c8jW9gXde2niZwLbmy8M-11" target="T0cU86BpY5sJV5J4BKLJ-1" edge="1">
          <mxGeometry x="0.4076" relative="1" as="geometry">
            <Array as="points">
              <mxPoint x="150" y="3390" />
            </Array>
            <mxPoint as="offset" />
          </mxGeometry>
        </mxCell>
        <mxCell id="kWzDlRxsoz6j9Fi_HSD--38" value="&lt;span style=&quot;color: rgb(0, 0, 0); font-family: Helvetica; font-size: 13px; font-style: normal; font-variant-ligatures: normal; font-variant-caps: normal; letter-spacing: normal; orphans: 2; text-align: center; text-indent: 0px; text-transform: none; widows: 2; word-spacing: 0px; -webkit-text-stroke-width: 0px; background-color: rgb(255, 255, 255); text-decoration-thickness: initial; text-decoration-style: initial; text-decoration-color: initial; float: none; display: inline !important;&quot;&gt;data_master_jawaban&lt;/span&gt;" style="edgeStyle=orthogonalEdgeStyle;rounded=0;orthogonalLoop=1;jettySize=auto;html=1;entryX=0;entryY=0.5;entryDx=0;entryDy=0;fontSize=13;fontStyle=1" parent="1" source="c8jW9gXde2niZwLbmy8M-11" target="T0cU86BpY5sJV5J4BKLJ-4" edge="1">
          <mxGeometry x="0.4912" y="-5" relative="1" as="geometry">
            <Array as="points">
              <mxPoint x="100" y="3605" />
            </Array>
            <mxPoint as="offset" />
          </mxGeometry>
        </mxCell>
        <mxCell id="c8jW9gXde2niZwLbmy8M-11" value="SUPER USER" style="rounded=0;whiteSpace=wrap;html=1;fontSize=13;fontStyle=1" parent="1" vertex="1">
          <mxGeometry x="40" y="3195" width="120" height="60" as="geometry" />
        </mxCell>
        <mxCell id="kWzDlRxsoz6j9Fi_HSD--22" value="&lt;span style=&quot;color: rgb(0, 0, 0); font-family: Helvetica; font-size: 13px; font-style: normal; font-variant-ligatures: normal; font-variant-caps: normal; letter-spacing: normal; orphans: 2; text-align: center; text-indent: 0px; text-transform: none; widows: 2; word-spacing: 0px; -webkit-text-stroke-width: 0px; background-color: rgb(255, 255, 255); text-decoration-thickness: initial; text-decoration-style: initial; text-decoration-color: initial; float: none; display: inline !important;&quot;&gt;info_data_perusahaan&lt;/span&gt;" style="edgeStyle=orthogonalEdgeStyle;rounded=0;orthogonalLoop=1;jettySize=auto;html=1;entryX=0.5;entryY=0;entryDx=0;entryDy=0;jumpStyle=arc;fontSize=13;fontStyle=1" parent="1" source="c8jW9gXde2niZwLbmy8M-13" target="c8jW9gXde2niZwLbmy8M-11" edge="1">
          <mxGeometry x="0.1307" relative="1" as="geometry">
            <Array as="points">
              <mxPoint x="625" y="2920" />
              <mxPoint x="100" y="2920" />
            </Array>
            <mxPoint as="offset" />
          </mxGeometry>
        </mxCell>
        <mxCell id="kWzDlRxsoz6j9Fi_HSD--27" value="&lt;span style=&quot;color: rgb(0, 0, 0); font-family: Helvetica; font-size: 13px; font-style: normal; font-variant-ligatures: normal; font-variant-caps: normal; letter-spacing: normal; orphans: 2; text-align: center; text-indent: 0px; text-transform: none; widows: 2; word-spacing: 0px; -webkit-text-stroke-width: 0px; background-color: rgb(255, 255, 255); text-decoration-thickness: initial; text-decoration-style: initial; text-decoration-color: initial; float: none; display: inline !important;&quot;&gt;info_data_perusahaan&lt;/span&gt;" style="edgeStyle=orthogonalEdgeStyle;rounded=0;orthogonalLoop=1;jettySize=auto;html=1;entryX=0.75;entryY=0;entryDx=0;entryDy=0;fontSize=13;fontStyle=1" parent="1" source="c8jW9gXde2niZwLbmy8M-13" target="c8jW9gXde2niZwLbmy8M-7" edge="1">
          <mxGeometry x="-0.4286" relative="1" as="geometry">
            <mxPoint x="-1" as="offset" />
          </mxGeometry>
        </mxCell>
        <mxCell id="c8jW9gXde2niZwLbmy8M-13" value="&lt;div style=&quot;font-size: 13px;&quot;&gt;P.3.2&lt;/div&gt;&lt;div style=&quot;font-size: 13px;&quot;&gt;Tampil Info&lt;/div&gt;&lt;div style=&quot;font-size: 13px;&quot;&gt;Perusahaan&amp;nbsp;&lt;br style=&quot;font-size: 13px;&quot;&gt;&lt;/div&gt;" style="ellipse;whiteSpace=wrap;html=1;aspect=fixed;fontSize=13;fontStyle=1" parent="1" vertex="1">
          <mxGeometry x="580" y="2800" width="90" height="90" as="geometry" />
        </mxCell>
        <mxCell id="kWzDlRxsoz6j9Fi_HSD--42" value="data_jabatan" style="edgeStyle=orthogonalEdgeStyle;rounded=0;orthogonalLoop=1;jettySize=auto;html=1;entryX=0.007;entryY=0.574;entryDx=0;entryDy=0;entryPerimeter=0;fontSize=13;fontStyle=1" parent="1" source="c8jW9gXde2niZwLbmy8M-16" target="c8jW9gXde2niZwLbmy8M-25" edge="1">
          <mxGeometry x="-0.5599" y="2" relative="1" as="geometry">
            <Array as="points">
              <mxPoint x="380" y="2970" />
              <mxPoint x="451" y="2970" />
            </Array>
            <mxPoint as="offset" />
          </mxGeometry>
        </mxCell>
        <mxCell id="c8jW9gXde2niZwLbmy8M-16" value="&lt;div style=&quot;font-size: 13px;&quot;&gt;P.3.3&lt;/div&gt;&lt;div style=&quot;font-size: 13px;&quot;&gt;Kelola Data Jabatan&lt;/div&gt;" style="ellipse;whiteSpace=wrap;html=1;aspect=fixed;flipV=1;flipH=1;fontSize=13;fontStyle=1" parent="1" vertex="1">
          <mxGeometry x="335" y="2990" width="90" height="90" as="geometry" />
        </mxCell>
        <mxCell id="kWzDlRxsoz6j9Fi_HSD--18" value="&lt;span style=&quot;color: rgb(0, 0, 0); font-family: Helvetica; font-size: 13px; font-style: normal; font-variant-ligatures: normal; font-variant-caps: normal; letter-spacing: normal; orphans: 2; text-align: center; text-indent: 0px; text-transform: none; widows: 2; word-spacing: 0px; -webkit-text-stroke-width: 0px; background-color: rgb(255, 255, 255); text-decoration-thickness: initial; text-decoration-style: initial; text-decoration-color: initial; float: none; display: inline !important;&quot;&gt;info_data_jabatan&lt;/span&gt;" style="edgeStyle=orthogonalEdgeStyle;rounded=0;orthogonalLoop=1;jettySize=auto;html=1;entryX=0.25;entryY=0;entryDx=0;entryDy=0;fontSize=13;fontStyle=1" parent="1" source="c8jW9gXde2niZwLbmy8M-18" target="c8jW9gXde2niZwLbmy8M-7" edge="1">
          <mxGeometry x="-0.3045" relative="1" as="geometry">
            <mxPoint as="offset" />
          </mxGeometry>
        </mxCell>
        <mxCell id="kWzDlRxsoz6j9Fi_HSD--21" value="&lt;span style=&quot;color: rgb(0, 0, 0); font-family: Helvetica; font-size: 13px; font-style: normal; font-variant-ligatures: normal; font-variant-caps: normal; letter-spacing: normal; orphans: 2; text-align: center; text-indent: 0px; text-transform: none; widows: 2; word-spacing: 0px; -webkit-text-stroke-width: 0px; background-color: rgb(255, 255, 255); text-decoration-thickness: initial; text-decoration-style: initial; text-decoration-color: initial; float: none; display: inline !important;&quot;&gt;info_data_jabatan&lt;/span&gt;" style="edgeStyle=orthogonalEdgeStyle;rounded=0;orthogonalLoop=1;jettySize=auto;html=1;entryX=0.911;entryY=-0.033;entryDx=0;entryDy=0;entryPerimeter=0;jumpStyle=arc;fontSize=13;fontStyle=1" parent="1" source="c8jW9gXde2niZwLbmy8M-18" target="c8jW9gXde2niZwLbmy8M-11" edge="1">
          <mxGeometry x="0.4017" relative="1" as="geometry">
            <Array as="points">
              <mxPoint x="625" y="3110" />
              <mxPoint x="149" y="3110" />
            </Array>
            <mxPoint as="offset" />
          </mxGeometry>
        </mxCell>
        <mxCell id="c8jW9gXde2niZwLbmy8M-18" value="&lt;div style=&quot;font-size: 13px;&quot;&gt;P.3.4&lt;/div&gt;&lt;div style=&quot;font-size: 13px;&quot;&gt;Tampil Info&lt;/div&gt;&lt;div style=&quot;font-size: 13px;&quot;&gt;Jabatan&lt;/div&gt;" style="ellipse;whiteSpace=wrap;html=1;aspect=fixed;fontSize=13;fontStyle=1" parent="1" vertex="1">
          <mxGeometry x="580" y="2990" width="90" height="90" as="geometry" />
        </mxCell>
        <mxCell id="PtQgzfgAQ1HUSDY9jaW--3" value="data_master_formulir" style="edgeStyle=orthogonalEdgeStyle;rounded=0;orthogonalLoop=1;jettySize=auto;html=1;entryX=0;entryY=0.5;entryDx=0;entryDy=0;fontSize=13;fontStyle=1" parent="1" source="c8jW9gXde2niZwLbmy8M-20" target="c8jW9gXde2niZwLbmy8M-27" edge="1">
          <mxGeometry x="-0.5556" y="-20" relative="1" as="geometry">
            <Array as="points">
              <mxPoint x="380" y="3160" />
            </Array>
            <mxPoint x="-20" y="-20" as="offset" />
          </mxGeometry>
        </mxCell>
        <mxCell id="c8jW9gXde2niZwLbmy8M-20" value="&lt;div style=&quot;font-size: 13px;&quot;&gt;P.3.5&lt;/div&gt;&lt;div style=&quot;font-size: 13px;&quot;&gt;Kelola Master Formulir&lt;/div&gt;" style="ellipse;whiteSpace=wrap;html=1;aspect=fixed;flipV=1;flipH=1;fontSize=13;fontStyle=1" parent="1" vertex="1">
          <mxGeometry x="335" y="3180" width="90" height="90" as="geometry" />
        </mxCell>
        <mxCell id="kWzDlRxsoz6j9Fi_HSD--9" value="&lt;span style=&quot;color: rgb(0, 0, 0); font-family: Helvetica; font-size: 13px; font-style: normal; font-variant-ligatures: normal; font-variant-caps: normal; letter-spacing: normal; orphans: 2; text-align: center; text-indent: 0px; text-transform: none; widows: 2; word-spacing: 0px; -webkit-text-stroke-width: 0px; background-color: rgb(255, 255, 255); text-decoration-thickness: initial; text-decoration-style: initial; text-decoration-color: initial; float: none; display: inline !important;&quot;&gt;info_data_master_formulir&lt;/span&gt;" style="edgeStyle=orthogonalEdgeStyle;rounded=0;orthogonalLoop=1;jettySize=auto;html=1;entryX=-0.009;entryY=0.336;entryDx=0;entryDy=0;entryPerimeter=0;fontSize=13;fontStyle=1" parent="1" source="c8jW9gXde2niZwLbmy8M-23" target="c8jW9gXde2niZwLbmy8M-7" edge="1">
          <mxGeometry relative="1" as="geometry">
            <mxPoint x="830" y="3225" as="targetPoint" />
            <Array as="points">
              <mxPoint x="750" y="3210" />
            </Array>
          </mxGeometry>
        </mxCell>
        <mxCell id="kWzDlRxsoz6j9Fi_HSD--10" value="&lt;span style=&quot;color: rgb(0, 0, 0); font-family: Helvetica; font-size: 13px; font-style: normal; font-variant-ligatures: normal; font-variant-caps: normal; letter-spacing: normal; orphans: 2; text-align: center; text-indent: 0px; text-transform: none; widows: 2; word-spacing: 0px; -webkit-text-stroke-width: 0px; background-color: rgb(255, 255, 255); text-decoration-thickness: initial; text-decoration-style: initial; text-decoration-color: initial; float: none; display: inline !important;&quot;&gt;info_data_master_formulir&lt;/span&gt;" style="edgeStyle=orthogonalEdgeStyle;rounded=0;orthogonalLoop=1;jettySize=auto;html=1;jumpStyle=arc;fontSize=13;entryX=1.003;entryY=0.701;entryDx=0;entryDy=0;entryPerimeter=0;fontStyle=1" parent="1" source="c8jW9gXde2niZwLbmy8M-23" target="c8jW9gXde2niZwLbmy8M-11" edge="1">
          <mxGeometry x="0.6549" relative="1" as="geometry">
            <mxPoint x="180" y="3220" as="targetPoint" />
            <Array as="points">
              <mxPoint x="610" y="3300" />
              <mxPoint x="310" y="3300" />
              <mxPoint x="310" y="3235" />
              <mxPoint x="180" y="3235" />
              <mxPoint x="180" y="3237" />
            </Array>
            <mxPoint as="offset" />
          </mxGeometry>
        </mxCell>
        <mxCell id="c8jW9gXde2niZwLbmy8M-23" value="&lt;div style=&quot;font-size: 13px;&quot;&gt;P.3.6&lt;/div&gt;&lt;div style=&quot;font-size: 13px;&quot;&gt;Tampil Info&lt;/div&gt;&lt;div style=&quot;font-size: 13px;&quot;&gt;Master&amp;nbsp;&lt;/div&gt;&lt;div style=&quot;font-size: 13px;&quot;&gt;Formulir&lt;/div&gt;" style="ellipse;whiteSpace=wrap;html=1;aspect=fixed;fontSize=13;fontStyle=1" parent="1" vertex="1">
          <mxGeometry x="570" y="3180" width="90" height="90" as="geometry" />
        </mxCell>
        <mxCell id="kWzDlRxsoz6j9Fi_HSD--43" value="info_data_jabatan" style="edgeStyle=orthogonalEdgeStyle;rounded=0;orthogonalLoop=1;jettySize=auto;html=1;entryX=0.5;entryY=0;entryDx=0;entryDy=0;fontSize=13;fontStyle=1" parent="1" source="c8jW9gXde2niZwLbmy8M-25" target="c8jW9gXde2niZwLbmy8M-18" edge="1">
          <mxGeometry x="0.4433" relative="1" as="geometry">
            <mxPoint as="offset" />
          </mxGeometry>
        </mxCell>
        <mxCell id="c8jW9gXde2niZwLbmy8M-25" value="Jabatan" style="html=1;dashed=0;whitespace=wrap;shape=partialRectangle;right=0;left=0;fontSize=12;fontStyle=1" parent="1" vertex="1">
          <mxGeometry x="450" y="2953" width="100" height="30" as="geometry" />
        </mxCell>
        <mxCell id="PtQgzfgAQ1HUSDY9jaW--4" value="info_data_master_formulir" style="edgeStyle=orthogonalEdgeStyle;rounded=0;orthogonalLoop=1;jettySize=auto;html=1;entryX=0.5;entryY=0;entryDx=0;entryDy=0;fontSize=13;fontStyle=1" parent="1" source="c8jW9gXde2niZwLbmy8M-27" target="c8jW9gXde2niZwLbmy8M-23" edge="1">
          <mxGeometry x="0.5789" y="45" relative="1" as="geometry">
            <mxPoint as="offset" />
          </mxGeometry>
        </mxCell>
        <mxCell id="c8jW9gXde2niZwLbmy8M-27" value="Master Formulir" style="html=1;dashed=0;whitespace=wrap;shape=partialRectangle;right=0;left=0;fontSize=12;fontStyle=1" parent="1" vertex="1">
          <mxGeometry x="450" y="3145" width="100" height="30" as="geometry" />
        </mxCell>
        <mxCell id="PtQgzfgAQ1HUSDY9jaW--6" value="data_master_pertanyaan" style="edgeStyle=orthogonalEdgeStyle;rounded=0;orthogonalLoop=1;jettySize=auto;html=1;entryX=0;entryY=0.5;entryDx=0;entryDy=0;fontSize=13;fontStyle=1" parent="1" source="T0cU86BpY5sJV5J4BKLJ-1" target="T0cU86BpY5sJV5J4BKLJ-5" edge="1">
          <mxGeometry x="-0.4744" y="40" relative="1" as="geometry">
            <Array as="points">
              <mxPoint x="380" y="3345" />
            </Array>
            <mxPoint x="-40" y="40" as="offset" />
          </mxGeometry>
        </mxCell>
        <mxCell id="T0cU86BpY5sJV5J4BKLJ-1" value="&lt;div style=&quot;font-size: 13px;&quot;&gt;P.3.7&lt;/div&gt;&lt;div style=&quot;font-size: 13px;&quot;&gt;Kelola Master Pertanyaan&lt;/div&gt;" style="ellipse;whiteSpace=wrap;html=1;aspect=fixed;flipV=1;flipH=1;fontSize=13;fontStyle=1" parent="1" vertex="1">
          <mxGeometry x="335" y="3370" width="90" height="90" as="geometry" />
        </mxCell>
        <mxCell id="kWzDlRxsoz6j9Fi_HSD--31" value="&lt;span style=&quot;color: rgb(0, 0, 0); font-family: Helvetica; font-size: 13px; font-style: normal; font-variant-ligatures: normal; font-variant-caps: normal; letter-spacing: normal; orphans: 2; text-align: center; text-indent: 0px; text-transform: none; widows: 2; word-spacing: 0px; -webkit-text-stroke-width: 0px; background-color: rgb(255, 255, 255); text-decoration-thickness: initial; text-decoration-style: initial; text-decoration-color: initial; float: none; display: inline !important;&quot;&gt;info_data_master_pertanyaan&lt;/span&gt;" style="edgeStyle=orthogonalEdgeStyle;rounded=0;orthogonalLoop=1;jettySize=auto;html=1;entryX=0.75;entryY=1;entryDx=0;entryDy=0;jumpStyle=arc;fontSize=13;fontStyle=1" parent="1" source="T0cU86BpY5sJV5J4BKLJ-2" target="c8jW9gXde2niZwLbmy8M-11" edge="1">
          <mxGeometry x="0.1173" relative="1" as="geometry">
            <Array as="points">
              <mxPoint x="625" y="3480" />
              <mxPoint x="130" y="3480" />
            </Array>
            <mxPoint as="offset" />
          </mxGeometry>
        </mxCell>
        <mxCell id="kWzDlRxsoz6j9Fi_HSD--33" value="&lt;span style=&quot;color: rgb(0, 0, 0); font-family: Helvetica; font-size: 13px; font-style: normal; font-variant-ligatures: normal; font-variant-caps: normal; letter-spacing: normal; orphans: 2; text-align: center; text-indent: 0px; text-transform: none; widows: 2; word-spacing: 0px; -webkit-text-stroke-width: 0px; background-color: rgb(255, 255, 255); text-decoration-thickness: initial; text-decoration-style: initial; text-decoration-color: initial; float: none; display: inline !important;&quot;&gt;info_data_master_pertanyaan&lt;/span&gt;" style="edgeStyle=orthogonalEdgeStyle;rounded=0;orthogonalLoop=1;jettySize=auto;html=1;entryX=0.147;entryY=1.028;entryDx=0;entryDy=0;entryPerimeter=0;fontSize=13;fontStyle=1" parent="1" source="T0cU86BpY5sJV5J4BKLJ-2" target="c8jW9gXde2niZwLbmy8M-7" edge="1">
          <mxGeometry x="-0.3547" relative="1" as="geometry">
            <mxPoint as="offset" />
          </mxGeometry>
        </mxCell>
        <mxCell id="T0cU86BpY5sJV5J4BKLJ-2" value="&lt;div style=&quot;font-size: 13px;&quot;&gt;P.3.8&lt;/div&gt;&lt;div style=&quot;font-size: 13px;&quot;&gt;Tampil Info&lt;/div&gt;&lt;div style=&quot;font-size: 13px;&quot;&gt;Master&amp;nbsp;&lt;/div&gt;&lt;div style=&quot;font-size: 13px;&quot;&gt;Pertanyaan&lt;/div&gt;" style="ellipse;whiteSpace=wrap;html=1;aspect=fixed;fontSize=13;fontStyle=1" parent="1" vertex="1">
          <mxGeometry x="580" y="3370" width="90" height="90" as="geometry" />
        </mxCell>
        <mxCell id="kWzDlRxsoz6j9Fi_HSD--39" value="&lt;span style=&quot;color: rgb(0, 0, 0); font-family: Helvetica; font-size: 13px; font-style: normal; font-variant-ligatures: normal; font-variant-caps: normal; letter-spacing: normal; orphans: 2; text-align: center; text-indent: 0px; text-transform: none; widows: 2; word-spacing: 0px; -webkit-text-stroke-width: 0px; background-color: rgb(255, 255, 255); text-decoration-thickness: initial; text-decoration-style: initial; text-decoration-color: initial; float: none; display: inline !important;&quot;&gt;info_data_master_jawaban&lt;/span&gt;" style="edgeStyle=orthogonalEdgeStyle;rounded=0;orthogonalLoop=1;jettySize=auto;html=1;entryX=0.25;entryY=1;entryDx=0;entryDy=0;jumpStyle=arc;fontSize=13;fontStyle=1" parent="1" source="T0cU86BpY5sJV5J4BKLJ-3" target="c8jW9gXde2niZwLbmy8M-11" edge="1">
          <mxGeometry x="-0.0443" relative="1" as="geometry">
            <Array as="points">
              <mxPoint x="625" y="3690" />
              <mxPoint x="70" y="3690" />
            </Array>
            <mxPoint as="offset" />
          </mxGeometry>
        </mxCell>
        <mxCell id="kWzDlRxsoz6j9Fi_HSD--40" value="&lt;span style=&quot;color: rgb(0, 0, 0); font-family: Helvetica; font-size: 13px; font-style: normal; font-variant-ligatures: normal; font-variant-caps: normal; letter-spacing: normal; orphans: 2; text-align: center; text-indent: 0px; text-transform: none; widows: 2; word-spacing: 0px; -webkit-text-stroke-width: 0px; background-color: rgb(255, 255, 255); text-decoration-thickness: initial; text-decoration-style: initial; text-decoration-color: initial; float: none; display: inline !important;&quot;&gt;info_data_master_jawaban&lt;/span&gt;" style="edgeStyle=orthogonalEdgeStyle;rounded=0;orthogonalLoop=1;jettySize=auto;html=1;entryX=0.664;entryY=1.035;entryDx=0;entryDy=0;entryPerimeter=0;fontSize=13;fontStyle=1" parent="1" source="T0cU86BpY5sJV5J4BKLJ-3" target="c8jW9gXde2niZwLbmy8M-7" edge="1">
          <mxGeometry x="-0.5613" relative="1" as="geometry">
            <mxPoint x="910" y="3260" as="targetPoint" />
            <Array as="points">
              <mxPoint x="910" y="3605" />
            </Array>
            <mxPoint as="offset" />
          </mxGeometry>
        </mxCell>
        <mxCell id="T0cU86BpY5sJV5J4BKLJ-3" value="&lt;div style=&quot;font-size: 13px;&quot;&gt;P.3.10&lt;/div&gt;&lt;div style=&quot;font-size: 13px;&quot;&gt;Tampil Info&lt;/div&gt;&lt;div style=&quot;font-size: 13px;&quot;&gt;Master&amp;nbsp;&lt;/div&gt;&lt;div style=&quot;font-size: 13px;&quot;&gt;Jawaban&lt;/div&gt;" style="ellipse;whiteSpace=wrap;html=1;aspect=fixed;fontSize=13;fontStyle=1" parent="1" vertex="1">
          <mxGeometry x="580" y="3560" width="90" height="90" as="geometry" />
        </mxCell>
        <mxCell id="PtQgzfgAQ1HUSDY9jaW--8" value="data_master_jawaban" style="edgeStyle=orthogonalEdgeStyle;rounded=0;orthogonalLoop=1;jettySize=auto;html=1;entryX=0;entryY=0.5;entryDx=0;entryDy=0;fontSize=13;fontStyle=1" parent="1" source="T0cU86BpY5sJV5J4BKLJ-4" target="XxjR8yGuiDQjLLS8bwKu-6" edge="1">
          <mxGeometry x="-0.4749" y="30" relative="1" as="geometry">
            <Array as="points">
              <mxPoint x="380" y="3535" />
            </Array>
            <mxPoint x="-30" y="30" as="offset" />
          </mxGeometry>
        </mxCell>
        <mxCell id="T0cU86BpY5sJV5J4BKLJ-4" value="&lt;div style=&quot;font-size: 13px;&quot;&gt;P.3.9&lt;/div&gt;&lt;div style=&quot;font-size: 13px;&quot;&gt;Kelola Master Jawaban&lt;/div&gt;" style="ellipse;whiteSpace=wrap;html=1;aspect=fixed;flipV=1;flipH=1;fontSize=13;fontStyle=1" parent="1" vertex="1">
          <mxGeometry x="335" y="3560" width="90" height="90" as="geometry" />
        </mxCell>
        <mxCell id="PtQgzfgAQ1HUSDY9jaW--7" value="info_data_master_pertanyaan" style="edgeStyle=orthogonalEdgeStyle;rounded=0;orthogonalLoop=1;jettySize=auto;html=1;fontSize=13;fontStyle=1" parent="1" source="T0cU86BpY5sJV5J4BKLJ-5" target="T0cU86BpY5sJV5J4BKLJ-2" edge="1">
          <mxGeometry x="0.5009" y="55" relative="1" as="geometry">
            <Array as="points">
              <mxPoint x="625" y="3345" />
            </Array>
            <mxPoint as="offset" />
          </mxGeometry>
        </mxCell>
        <mxCell id="T0cU86BpY5sJV5J4BKLJ-5" value="Master Pertanyaan" style="html=1;dashed=0;whitespace=wrap;shape=partialRectangle;right=0;left=0;fontSize=12;fontStyle=1" parent="1" vertex="1">
          <mxGeometry x="450" y="3330" width="100" height="30" as="geometry" />
        </mxCell>
        <mxCell id="PtQgzfgAQ1HUSDY9jaW--9" value="info_data_master_jawaban" style="edgeStyle=orthogonalEdgeStyle;rounded=0;orthogonalLoop=1;jettySize=auto;html=1;entryX=0.5;entryY=0;entryDx=0;entryDy=0;fontSize=13;fontStyle=1" parent="1" source="XxjR8yGuiDQjLLS8bwKu-6" target="T0cU86BpY5sJV5J4BKLJ-3" edge="1">
          <mxGeometry x="0.5003" y="15" relative="1" as="geometry">
            <Array as="points">
              <mxPoint x="625" y="3535" />
            </Array>
            <mxPoint as="offset" />
          </mxGeometry>
        </mxCell>
        <mxCell id="XxjR8yGuiDQjLLS8bwKu-6" value="Master Jawaban" style="html=1;dashed=0;whitespace=wrap;shape=partialRectangle;right=0;left=0;fontSize=12;fontStyle=1" parent="1" vertex="1">
          <mxGeometry x="450" y="3520" width="100" height="30" as="geometry" />
        </mxCell>
      </root>
    </mxGraphModel>
  </diagram>
  <diagram id="hmNL4u0TRRPiqtF-XOhN" name="DFD P.4">
    <mxGraphModel dx="2085" dy="-2664" grid="1" gridSize="10" guides="1" tooltips="1" connect="1" arrows="1" fold="1" page="1" pageScale="1" pageWidth="850" pageHeight="1100" math="0" shadow="0">
      <root>
        <mxCell id="0" />
        <mxCell id="1" parent="0" />
        <mxCell id="j4UsGMRyhZkNmxk-pElW-81" style="edgeStyle=orthogonalEdgeStyle;rounded=0;orthogonalLoop=1;jettySize=auto;html=1;entryX=0.403;entryY=-0.043;entryDx=0;entryDy=0;entryPerimeter=0;fontSize=14;fontStyle=1" parent="1" source="2RKwz1BAJsP4RW_uo5MN-2" target="2RKwz1BAJsP4RW_uo5MN-4" edge="1">
          <mxGeometry relative="1" as="geometry">
            <Array as="points">
              <mxPoint x="350" y="3805" />
              <mxPoint x="350" y="3770" />
              <mxPoint x="490" y="3770" />
            </Array>
            <mxPoint x="490" y="3780" as="targetPoint" />
          </mxGeometry>
        </mxCell>
        <mxCell id="j4UsGMRyhZkNmxk-pElW-82" value="&lt;font style=&quot;font-size: 14px;&quot;&gt;data_biodata_lamaran&lt;/font&gt;" style="edgeLabel;html=1;align=center;verticalAlign=middle;resizable=0;points=[];fontSize=14;fontStyle=1" parent="j4UsGMRyhZkNmxk-pElW-81" vertex="1" connectable="0">
          <mxGeometry x="-0.1662" y="-3" relative="1" as="geometry">
            <mxPoint x="21" as="offset" />
          </mxGeometry>
        </mxCell>
        <mxCell id="2RKwz1BAJsP4RW_uo5MN-2" value="&lt;div style=&quot;font-size: 14px;&quot;&gt;P.4.1&lt;/div&gt;&lt;div style=&quot;font-size: 14px;&quot;&gt;Kelola&amp;nbsp;&lt;/div&gt;&lt;div style=&quot;font-size: 14px;&quot;&gt;&amp;nbsp;Biodata Lamaran&lt;br style=&quot;font-size: 14px;&quot;&gt;&lt;/div&gt;" style="ellipse;whiteSpace=wrap;html=1;aspect=fixed;fontSize=14;fontStyle=1" parent="1" vertex="1">
          <mxGeometry x="230" y="3760" width="90" height="90" as="geometry" />
        </mxCell>
        <mxCell id="j4UsGMRyhZkNmxk-pElW-83" value="&lt;span style=&quot;color: rgb(0, 0, 0); font-family: Helvetica; font-size: 14px; font-style: normal; font-variant-ligatures: normal; font-variant-caps: normal; letter-spacing: normal; orphans: 2; text-align: center; text-indent: 0px; text-transform: none; widows: 2; word-spacing: 0px; -webkit-text-stroke-width: 0px; background-color: rgb(255, 255, 255); text-decoration-thickness: initial; text-decoration-style: initial; text-decoration-color: initial; float: none; display: inline !important;&quot;&gt;info_biodata_lamaran&lt;/span&gt;" style="edgeStyle=orthogonalEdgeStyle;rounded=0;orthogonalLoop=1;jettySize=auto;html=1;entryX=0;entryY=0.5;entryDx=0;entryDy=0;fontSize=14;fontStyle=1" parent="1" source="2RKwz1BAJsP4RW_uo5MN-4" target="2RKwz1BAJsP4RW_uo5MN-19" edge="1">
          <mxGeometry x="-0.137" relative="1" as="geometry">
            <Array as="points">
              <mxPoint x="490" y="3840" />
              <mxPoint x="650" y="3840" />
              <mxPoint x="650" y="3805" />
            </Array>
            <mxPoint as="offset" />
          </mxGeometry>
        </mxCell>
        <mxCell id="2RKwz1BAJsP4RW_uo5MN-4" value="Biodata Lamaran" style="html=1;dashed=0;whitespace=wrap;shape=partialRectangle;right=0;left=0;fontSize=14;fontStyle=1" parent="1" vertex="1">
          <mxGeometry x="450" y="3790" width="100" height="30" as="geometry" />
        </mxCell>
        <mxCell id="j4UsGMRyhZkNmxk-pElW-67" value="&lt;span style=&quot;color: rgb(0, 0, 0); font-family: Helvetica; font-size: 14px; font-style: normal; font-variant-ligatures: normal; font-variant-caps: normal; letter-spacing: normal; orphans: 2; text-align: center; text-indent: 0px; text-transform: none; widows: 2; word-spacing: 0px; -webkit-text-stroke-width: 0px; background-color: rgb(255, 255, 255); text-decoration-thickness: initial; text-decoration-style: initial; text-decoration-color: initial; float: none; display: inline !important;&quot;&gt;data_jawaban&lt;/span&gt;" style="edgeStyle=orthogonalEdgeStyle;rounded=0;orthogonalLoop=1;jettySize=auto;html=1;entryX=0.5;entryY=1;entryDx=0;entryDy=0;fontSize=14;fontStyle=1" parent="1" source="2RKwz1BAJsP4RW_uo5MN-7" target="9FF4zXoGLQPaVLQoBrba-3" edge="1">
          <mxGeometry x="-0.3962" relative="1" as="geometry">
            <Array as="points">
              <mxPoint x="275" y="4380" />
            </Array>
            <mxPoint as="offset" />
          </mxGeometry>
        </mxCell>
        <mxCell id="j4UsGMRyhZkNmxk-pElW-69" value="&lt;span style=&quot;color: rgb(0, 0, 0); font-family: Helvetica; font-size: 14px; font-style: normal; font-variant-ligatures: normal; font-variant-caps: normal; letter-spacing: normal; orphans: 2; text-align: center; text-indent: 0px; text-transform: none; widows: 2; word-spacing: 0px; -webkit-text-stroke-width: 0px; background-color: rgb(255, 255, 255); text-decoration-thickness: initial; text-decoration-style: initial; text-decoration-color: initial; float: none; display: inline !important;&quot;&gt;data_pertanyaan&lt;/span&gt;" style="edgeStyle=orthogonalEdgeStyle;rounded=0;orthogonalLoop=1;jettySize=auto;html=1;entryX=0;entryY=0.5;entryDx=0;entryDy=0;jumpStyle=arc;fontSize=14;fontStyle=1" parent="1" source="2RKwz1BAJsP4RW_uo5MN-7" target="9FF4zXoGLQPaVLQoBrba-2" edge="1">
          <mxGeometry x="-0.7252" relative="1" as="geometry">
            <mxPoint x="-20" y="4150" as="targetPoint" />
            <Array as="points">
              <mxPoint x="200" y="4410" />
              <mxPoint x="200" y="4125" />
            </Array>
            <mxPoint x="-1" as="offset" />
          </mxGeometry>
        </mxCell>
        <mxCell id="j4UsGMRyhZkNmxk-pElW-70" value="&lt;span style=&quot;color: rgb(0, 0, 0); font-family: Helvetica; font-size: 14px; font-style: normal; font-variant-ligatures: normal; font-variant-caps: normal; letter-spacing: normal; orphans: 2; text-align: center; text-indent: 0px; text-transform: none; widows: 2; word-spacing: 0px; -webkit-text-stroke-width: 0px; background-color: rgb(255, 255, 255); text-decoration-thickness: initial; text-decoration-style: initial; text-decoration-color: initial; float: none; display: inline !important;&quot;&gt;data_formulir_lamaran&lt;/span&gt;" style="edgeStyle=orthogonalEdgeStyle;rounded=0;orthogonalLoop=1;jettySize=auto;html=1;jumpStyle=arc;fontSize=14;fontStyle=1" parent="1" source="2RKwz1BAJsP4RW_uo5MN-7" target="2RKwz1BAJsP4RW_uo5MN-15" edge="1">
          <mxGeometry x="-0.7562" relative="1" as="geometry">
            <Array as="points">
              <mxPoint x="460" y="4440" />
              <mxPoint x="10" y="4440" />
              <mxPoint x="10" y="3940" />
            </Array>
            <mxPoint as="offset" />
          </mxGeometry>
        </mxCell>
        <mxCell id="j4UsGMRyhZkNmxk-pElW-71" value="&lt;span style=&quot;color: rgb(0, 0, 0); font-family: Helvetica; font-size: 14px; font-style: normal; font-variant-ligatures: normal; font-variant-caps: normal; letter-spacing: normal; orphans: 2; text-align: center; text-indent: 0px; text-transform: none; widows: 2; word-spacing: 0px; -webkit-text-stroke-width: 0px; background-color: rgb(255, 255, 255); text-decoration-thickness: initial; text-decoration-style: initial; text-decoration-color: initial; float: none; display: inline !important;&quot;&gt;data_biodata_lamaran&lt;/span&gt;" style="edgeStyle=orthogonalEdgeStyle;rounded=0;orthogonalLoop=1;jettySize=auto;html=1;fontSize=14;fontStyle=1" parent="1" source="2RKwz1BAJsP4RW_uo5MN-7" target="2RKwz1BAJsP4RW_uo5MN-2" edge="1">
          <mxGeometry x="-0.7004" relative="1" as="geometry">
            <mxPoint x="230" y="3780" as="targetPoint" />
            <Array as="points">
              <mxPoint x="480" y="4470" />
              <mxPoint x="-10" y="4470" />
              <mxPoint x="-10" y="3790" />
            </Array>
            <mxPoint as="offset" />
          </mxGeometry>
        </mxCell>
        <mxCell id="2RKwz1BAJsP4RW_uo5MN-7" value="PETUGAS SDM" style="rounded=0;whiteSpace=wrap;html=1;fontSize=14;fontStyle=1" parent="1" vertex="1">
          <mxGeometry x="440" y="4360" width="120" height="60" as="geometry" />
        </mxCell>
        <mxCell id="j4UsGMRyhZkNmxk-pElW-23" value="&lt;span style=&quot;color: rgb(0, 0, 0); font-family: Helvetica; font-size: 14px; font-style: normal; font-variant-ligatures: normal; font-variant-caps: normal; letter-spacing: normal; orphans: 2; text-align: center; text-indent: 0px; text-transform: none; widows: 2; word-spacing: 0px; -webkit-text-stroke-width: 0px; background-color: rgb(255, 255, 255); text-decoration-thickness: initial; text-decoration-style: initial; text-decoration-color: initial; float: none; display: inline !important;&quot;&gt;data_biodata_lamaran&lt;/span&gt;" style="edgeStyle=orthogonalEdgeStyle;rounded=0;orthogonalLoop=1;jettySize=auto;html=1;jumpStyle=arc;entryX=0.026;entryY=0.666;entryDx=0;entryDy=0;entryPerimeter=0;fontSize=14;fontStyle=1" parent="1" source="2RKwz1BAJsP4RW_uo5MN-10" target="2RKwz1BAJsP4RW_uo5MN-2" edge="1">
          <mxGeometry x="0.4276" relative="1" as="geometry">
            <mxPoint x="230" y="3820" as="targetPoint" />
            <Array as="points">
              <mxPoint x="30" y="3820" />
            </Array>
            <mxPoint as="offset" />
          </mxGeometry>
        </mxCell>
        <mxCell id="j4UsGMRyhZkNmxk-pElW-46" value="&lt;span style=&quot;color: rgb(0, 0, 0); font-family: Helvetica; font-size: 14px; font-style: normal; font-variant-ligatures: normal; font-variant-caps: normal; letter-spacing: normal; orphans: 2; text-align: center; text-indent: 0px; text-transform: none; widows: 2; word-spacing: 0px; -webkit-text-stroke-width: 0px; background-color: rgb(255, 255, 255); text-decoration-thickness: initial; text-decoration-style: initial; text-decoration-color: initial; float: none; display: inline !important;&quot;&gt;data_formulir_lamaran&lt;/span&gt;" style="edgeStyle=orthogonalEdgeStyle;rounded=0;orthogonalLoop=1;jettySize=auto;html=1;fontSize=14;fontStyle=1" parent="1" source="2RKwz1BAJsP4RW_uo5MN-10" edge="1">
          <mxGeometry x="-0.0591" relative="1" as="geometry">
            <mxPoint x="230" y="3970" as="targetPoint" />
            <Array as="points">
              <mxPoint x="100" y="3970" />
              <mxPoint x="230" y="3970" />
            </Array>
            <mxPoint as="offset" />
          </mxGeometry>
        </mxCell>
        <mxCell id="j4UsGMRyhZkNmxk-pElW-53" value="&lt;span style=&quot;color: rgb(0, 0, 0); font-family: Helvetica; font-size: 14px; font-style: normal; font-variant-ligatures: normal; font-variant-caps: normal; letter-spacing: normal; orphans: 2; text-align: center; text-indent: 0px; text-transform: none; widows: 2; word-spacing: 0px; -webkit-text-stroke-width: 0px; background-color: rgb(255, 255, 255); text-decoration-thickness: initial; text-decoration-style: initial; text-decoration-color: initial; float: none; display: inline !important;&quot;&gt;data_pertanyaan&lt;/span&gt;" style="edgeStyle=orthogonalEdgeStyle;rounded=0;orthogonalLoop=1;jettySize=auto;html=1;entryX=0.233;entryY=0.091;entryDx=0;entryDy=0;jumpStyle=arc;entryPerimeter=0;fontSize=14;fontStyle=1" parent="1" source="2RKwz1BAJsP4RW_uo5MN-10" target="9FF4zXoGLQPaVLQoBrba-2" edge="1">
          <mxGeometry x="-0.1205" relative="1" as="geometry">
            <Array as="points">
              <mxPoint x="250" y="4060" />
              <mxPoint x="250" y="4070" />
              <mxPoint x="251" y="4070" />
            </Array>
            <mxPoint as="offset" />
          </mxGeometry>
        </mxCell>
        <mxCell id="j4UsGMRyhZkNmxk-pElW-59" value="&lt;span style=&quot;color: rgb(0, 0, 0); font-family: Helvetica; font-size: 14px; font-style: normal; font-variant-ligatures: normal; font-variant-caps: normal; letter-spacing: normal; orphans: 2; text-align: center; text-indent: 0px; text-transform: none; widows: 2; word-spacing: 0px; -webkit-text-stroke-width: 0px; background-color: rgb(255, 255, 255); text-decoration-thickness: initial; text-decoration-style: initial; text-decoration-color: initial; float: none; display: inline !important;&quot;&gt;data_jawaban&lt;/span&gt;" style="edgeStyle=orthogonalEdgeStyle;rounded=0;orthogonalLoop=1;jettySize=auto;html=1;entryX=0;entryY=0.5;entryDx=0;entryDy=0;jumpStyle=arc;fontSize=14;fontStyle=1" parent="1" source="2RKwz1BAJsP4RW_uo5MN-10" target="9FF4zXoGLQPaVLQoBrba-3" edge="1">
          <mxGeometry x="0.3924" relative="1" as="geometry">
            <Array as="points">
              <mxPoint x="70" y="4275" />
            </Array>
            <mxPoint as="offset" />
          </mxGeometry>
        </mxCell>
        <mxCell id="2RKwz1BAJsP4RW_uo5MN-10" value="SUPER USER" style="rounded=0;whiteSpace=wrap;html=1;fontSize=14;fontStyle=1" parent="1" vertex="1">
          <mxGeometry x="20" y="4010" width="120" height="60" as="geometry" />
        </mxCell>
        <mxCell id="j4UsGMRyhZkNmxk-pElW-41" value="&lt;span style=&quot;color: rgb(0, 0, 0); font-family: Helvetica; font-size: 14px; font-style: normal; font-variant-ligatures: normal; font-variant-caps: normal; letter-spacing: normal; orphans: 2; text-align: center; text-indent: 0px; text-transform: none; widows: 2; word-spacing: 0px; -webkit-text-stroke-width: 0px; background-color: rgb(255, 255, 255); text-decoration-thickness: initial; text-decoration-style: initial; text-decoration-color: initial; float: none; display: inline !important;&quot;&gt;data_biodata_lamaran&lt;/span&gt;" style="edgeStyle=orthogonalEdgeStyle;rounded=0;orthogonalLoop=1;jettySize=auto;html=1;entryX=0.5;entryY=0;entryDx=0;entryDy=0;fontSize=14;fontStyle=1" parent="1" source="2RKwz1BAJsP4RW_uo5MN-13" target="2RKwz1BAJsP4RW_uo5MN-2" edge="1">
          <mxGeometry x="-0.2893" relative="1" as="geometry">
            <Array as="points">
              <mxPoint x="970" y="3740" />
              <mxPoint x="275" y="3740" />
            </Array>
            <mxPoint as="offset" />
          </mxGeometry>
        </mxCell>
        <mxCell id="j4UsGMRyhZkNmxk-pElW-48" value="&lt;span style=&quot;color: rgb(0, 0, 0); font-family: Helvetica; font-size: 14px; font-style: normal; font-variant-ligatures: normal; font-variant-caps: normal; letter-spacing: normal; orphans: 2; text-align: center; text-indent: 0px; text-transform: none; widows: 2; word-spacing: 0px; -webkit-text-stroke-width: 0px; background-color: rgb(255, 255, 255); text-decoration-thickness: initial; text-decoration-style: initial; text-decoration-color: initial; float: none; display: inline !important;&quot;&gt;data_formulir_lamaran&lt;/span&gt;" style="edgeStyle=orthogonalEdgeStyle;rounded=0;orthogonalLoop=1;jettySize=auto;html=1;entryX=0.5;entryY=0;entryDx=0;entryDy=0;fontSize=14;fontStyle=1" parent="1" source="2RKwz1BAJsP4RW_uo5MN-13" target="2RKwz1BAJsP4RW_uo5MN-15" edge="1">
          <mxGeometry x="-0.4904" relative="1" as="geometry">
            <Array as="points">
              <mxPoint x="920" y="3890" />
              <mxPoint x="275" y="3890" />
            </Array>
            <mxPoint as="offset" />
          </mxGeometry>
        </mxCell>
        <mxCell id="j4UsGMRyhZkNmxk-pElW-55" value="&lt;span style=&quot;color: rgb(0, 0, 0); font-family: Helvetica; font-size: 14px; font-style: normal; font-variant-ligatures: normal; font-variant-caps: normal; letter-spacing: normal; orphans: 2; text-align: center; text-indent: 0px; text-transform: none; widows: 2; word-spacing: 0px; -webkit-text-stroke-width: 0px; background-color: rgb(255, 255, 255); text-decoration-thickness: initial; text-decoration-style: initial; text-decoration-color: initial; float: none; display: inline !important;&quot;&gt;data_pertanyaan&lt;/span&gt;" style="edgeStyle=orthogonalEdgeStyle;rounded=0;orthogonalLoop=1;jettySize=auto;html=1;entryX=0.747;entryY=0.057;entryDx=0;entryDy=0;fontSize=14;exitX=0;exitY=0.25;exitDx=0;exitDy=0;entryPerimeter=0;fontStyle=1" parent="1" source="2RKwz1BAJsP4RW_uo5MN-13" target="9FF4zXoGLQPaVLQoBrba-2" edge="1">
          <mxGeometry x="-0.5654" relative="1" as="geometry">
            <Array as="points">
              <mxPoint x="860" y="4040" />
              <mxPoint x="820" y="4040" />
              <mxPoint x="820" y="4060" />
              <mxPoint x="297" y="4060" />
            </Array>
            <mxPoint x="820" y="4020" as="sourcePoint" />
            <mxPoint as="offset" />
          </mxGeometry>
        </mxCell>
        <mxCell id="j4UsGMRyhZkNmxk-pElW-61" value="&lt;span style=&quot;color: rgb(0, 0, 0); font-family: Helvetica; font-size: 14px; font-style: normal; font-variant-ligatures: normal; font-variant-caps: normal; letter-spacing: normal; orphans: 2; text-align: center; text-indent: 0px; text-transform: none; widows: 2; word-spacing: 0px; -webkit-text-stroke-width: 0px; background-color: rgb(255, 255, 255); text-decoration-thickness: initial; text-decoration-style: initial; text-decoration-color: initial; float: none; display: inline !important;&quot;&gt;data_jawaban&lt;/span&gt;" style="edgeStyle=orthogonalEdgeStyle;rounded=0;orthogonalLoop=1;jettySize=auto;html=1;entryX=0.5;entryY=0;entryDx=0;entryDy=0;fontSize=14;fontStyle=1" parent="1" source="2RKwz1BAJsP4RW_uo5MN-13" target="9FF4zXoGLQPaVLQoBrba-3" edge="1">
          <mxGeometry x="-0.4181" relative="1" as="geometry">
            <Array as="points">
              <mxPoint x="920" y="4210" />
              <mxPoint x="275" y="4210" />
            </Array>
            <mxPoint as="offset" />
          </mxGeometry>
        </mxCell>
        <mxCell id="2RKwz1BAJsP4RW_uo5MN-13" value="PELAMAR" style="rounded=0;whiteSpace=wrap;html=1;fontSize=14;fontStyle=1" parent="1" vertex="1">
          <mxGeometry x="860" y="4010" width="120" height="60" as="geometry" />
        </mxCell>
        <mxCell id="j4UsGMRyhZkNmxk-pElW-78" value="&lt;font style=&quot;font-size: 14px;&quot;&gt;data_formulir_lamaran&lt;/font&gt;" style="edgeStyle=orthogonalEdgeStyle;rounded=0;orthogonalLoop=1;jettySize=auto;html=1;entryX=0.25;entryY=1;entryDx=0;entryDy=0;exitX=0.5;exitY=1;exitDx=0;exitDy=0;fontSize=14;fontStyle=1" parent="1" source="2RKwz1BAJsP4RW_uo5MN-15" target="2RKwz1BAJsP4RW_uo5MN-25" edge="1">
          <mxGeometry relative="1" as="geometry">
            <mxPoint x="275" y="4010" as="sourcePoint" />
            <Array as="points">
              <mxPoint x="275" y="4010" />
              <mxPoint x="475" y="4010" />
            </Array>
          </mxGeometry>
        </mxCell>
        <mxCell id="2RKwz1BAJsP4RW_uo5MN-15" value="&lt;div style=&quot;font-size: 14px;&quot;&gt;P.4.3&lt;/div&gt;&lt;div style=&quot;font-size: 14px;&quot;&gt;Kelola Formulir Lamaran&lt;/div&gt;" style="ellipse;whiteSpace=wrap;html=1;aspect=fixed;fontSize=14;fontStyle=1" parent="1" vertex="1">
          <mxGeometry x="230" y="3910" width="90" height="90" as="geometry" />
        </mxCell>
        <mxCell id="j4UsGMRyhZkNmxk-pElW-43" value="&lt;span style=&quot;color: rgb(0, 0, 0); font-family: Helvetica; font-size: 14px; font-style: normal; font-variant-ligatures: normal; font-variant-caps: normal; letter-spacing: normal; orphans: 2; text-align: center; text-indent: 0px; text-transform: none; widows: 2; word-spacing: 0px; -webkit-text-stroke-width: 0px; background-color: rgb(255, 255, 255); text-decoration-thickness: initial; text-decoration-style: initial; text-decoration-color: initial; float: none; display: inline !important;&quot;&gt;info_biodata_lamaran&lt;/span&gt;" style="edgeStyle=orthogonalEdgeStyle;rounded=0;orthogonalLoop=1;jettySize=auto;html=1;jumpStyle=arc;fontSize=14;fontStyle=1" parent="1" source="2RKwz1BAJsP4RW_uo5MN-19" edge="1">
          <mxGeometry x="0.46" relative="1" as="geometry">
            <mxPoint x="60" y="4010" as="targetPoint" />
            <Array as="points">
              <mxPoint x="715" y="3870" />
              <mxPoint x="60" y="3870" />
            </Array>
            <mxPoint as="offset" />
          </mxGeometry>
        </mxCell>
        <mxCell id="j4UsGMRyhZkNmxk-pElW-45" value="&lt;span style=&quot;color: rgb(0, 0, 0); font-family: Helvetica; font-size: 14px; font-style: normal; font-variant-ligatures: normal; font-variant-caps: normal; letter-spacing: normal; orphans: 2; text-align: center; text-indent: 0px; text-transform: none; widows: 2; word-spacing: 0px; -webkit-text-stroke-width: 0px; background-color: rgb(255, 255, 255); text-decoration-thickness: initial; text-decoration-style: initial; text-decoration-color: initial; float: none; display: inline !important;&quot;&gt;info_biodata_lamaran&lt;/span&gt;" style="edgeStyle=orthogonalEdgeStyle;rounded=0;orthogonalLoop=1;jettySize=auto;html=1;entryX=0.75;entryY=0;entryDx=0;entryDy=0;fontSize=14;fontStyle=1" parent="1" source="2RKwz1BAJsP4RW_uo5MN-19" target="2RKwz1BAJsP4RW_uo5MN-13" edge="1">
          <mxGeometry x="-0.3592" relative="1" as="geometry">
            <Array as="points">
              <mxPoint x="950" y="3820" />
            </Array>
            <mxPoint as="offset" />
          </mxGeometry>
        </mxCell>
        <mxCell id="j4UsGMRyhZkNmxk-pElW-76" value="&lt;span style=&quot;color: rgb(0, 0, 0); font-family: Helvetica; font-size: 14px; font-style: normal; font-variant-ligatures: normal; font-variant-caps: normal; letter-spacing: normal; orphans: 2; text-align: center; text-indent: 0px; text-transform: none; widows: 2; word-spacing: 0px; -webkit-text-stroke-width: 0px; background-color: rgb(255, 255, 255); text-decoration-thickness: initial; text-decoration-style: initial; text-decoration-color: initial; float: none; display: inline !important;&quot;&gt;info_biodata_lamaran&lt;/span&gt;" style="edgeStyle=orthogonalEdgeStyle;rounded=0;orthogonalLoop=1;jettySize=auto;html=1;entryX=0.667;entryY=1;entryDx=0;entryDy=0;entryPerimeter=0;jumpStyle=arc;fontSize=14;fontStyle=1" parent="1" source="2RKwz1BAJsP4RW_uo5MN-19" target="2RKwz1BAJsP4RW_uo5MN-7" edge="1">
          <mxGeometry x="0.6411" relative="1" as="geometry">
            <Array as="points">
              <mxPoint x="1020" y="3780" />
              <mxPoint x="1020" y="4470" />
              <mxPoint x="520" y="4470" />
            </Array>
            <mxPoint as="offset" />
          </mxGeometry>
        </mxCell>
        <mxCell id="2RKwz1BAJsP4RW_uo5MN-19" value="&lt;div style=&quot;font-size: 14px;&quot;&gt;P.4.1&lt;/div&gt;&lt;div style=&quot;font-size: 14px;&quot;&gt;Tampil&lt;/div&gt;&lt;div style=&quot;font-size: 14px;&quot;&gt;&amp;nbsp;Biodata Lamaran&lt;br style=&quot;font-size: 14px;&quot;&gt;&lt;/div&gt;" style="ellipse;whiteSpace=wrap;html=1;aspect=fixed;fontSize=14;fontStyle=1" parent="1" vertex="1">
          <mxGeometry x="670" y="3760" width="90" height="90" as="geometry" />
        </mxCell>
        <mxCell id="j4UsGMRyhZkNmxk-pElW-49" value="&lt;span style=&quot;color: rgb(0, 0, 0); font-family: Helvetica; font-size: 14px; font-style: normal; font-variant-ligatures: normal; font-variant-caps: normal; letter-spacing: normal; orphans: 2; text-align: center; text-indent: 0px; text-transform: none; widows: 2; word-spacing: 0px; -webkit-text-stroke-width: 0px; background-color: rgb(255, 255, 255); text-decoration-thickness: initial; text-decoration-style: initial; text-decoration-color: initial; float: none; display: inline !important;&quot;&gt;info_formulir_lamaran&lt;/span&gt;" style="edgeStyle=orthogonalEdgeStyle;rounded=0;orthogonalLoop=1;jettySize=auto;html=1;jumpStyle=arc;entryX=1;entryY=0.333;entryDx=0;entryDy=0;entryPerimeter=0;fontSize=14;fontStyle=1" parent="1" source="2RKwz1BAJsP4RW_uo5MN-23" target="2RKwz1BAJsP4RW_uo5MN-10" edge="1">
          <mxGeometry x="0.7144" relative="1" as="geometry">
            <mxPoint x="130" y="4030" as="targetPoint" />
            <Array as="points">
              <mxPoint x="720" y="4030" />
            </Array>
            <mxPoint as="offset" />
          </mxGeometry>
        </mxCell>
        <mxCell id="j4UsGMRyhZkNmxk-pElW-52" value="&lt;span style=&quot;color: rgb(0, 0, 0); font-family: Helvetica; font-size: 14px; font-style: normal; font-variant-ligatures: normal; font-variant-caps: normal; letter-spacing: normal; orphans: 2; text-align: center; text-indent: 0px; text-transform: none; widows: 2; word-spacing: 0px; -webkit-text-stroke-width: 0px; background-color: rgb(255, 255, 255); text-decoration-thickness: initial; text-decoration-style: initial; text-decoration-color: initial; float: none; display: inline !important;&quot;&gt;info_formulir_lamaran&lt;/span&gt;" style="edgeStyle=orthogonalEdgeStyle;rounded=0;orthogonalLoop=1;jettySize=auto;html=1;entryX=0.25;entryY=0;entryDx=0;entryDy=0;fontSize=14;fontStyle=1" parent="1" source="2RKwz1BAJsP4RW_uo5MN-23" target="2RKwz1BAJsP4RW_uo5MN-13" edge="1">
          <mxGeometry x="-0.0425" relative="1" as="geometry">
            <Array as="points">
              <mxPoint x="890" y="3970" />
            </Array>
            <mxPoint as="offset" />
          </mxGeometry>
        </mxCell>
        <mxCell id="j4UsGMRyhZkNmxk-pElW-75" value="&lt;span style=&quot;color: rgb(0, 0, 0); font-family: Helvetica; font-size: 14px; font-style: normal; font-variant-ligatures: normal; font-variant-caps: normal; letter-spacing: normal; orphans: 2; text-align: center; text-indent: 0px; text-transform: none; widows: 2; word-spacing: 0px; -webkit-text-stroke-width: 0px; background-color: rgb(255, 255, 255); text-decoration-thickness: initial; text-decoration-style: initial; text-decoration-color: initial; float: none; display: inline !important;&quot;&gt;info_formulir_lamaran&lt;/span&gt;" style="edgeStyle=orthogonalEdgeStyle;rounded=0;orthogonalLoop=1;jettySize=auto;html=1;entryX=0.833;entryY=1.006;entryDx=0;entryDy=0;entryPerimeter=0;jumpStyle=arc;fontSize=14;fontStyle=1" parent="1" source="2RKwz1BAJsP4RW_uo5MN-23" target="2RKwz1BAJsP4RW_uo5MN-7" edge="1">
          <mxGeometry x="0.6781" relative="1" as="geometry">
            <mxPoint x="550" y="4490" as="targetPoint" />
            <Array as="points">
              <mxPoint x="1000" y="3940" />
              <mxPoint x="1000" y="4440" />
              <mxPoint x="540" y="4440" />
            </Array>
            <mxPoint as="offset" />
          </mxGeometry>
        </mxCell>
        <mxCell id="2RKwz1BAJsP4RW_uo5MN-23" value="&lt;div style=&quot;font-size: 14px;&quot;&gt;P.4.4&lt;/div&gt;&lt;div style=&quot;font-size: 14px;&quot;&gt;Tampil Formulir Lamaran&lt;/div&gt;" style="ellipse;whiteSpace=wrap;html=1;aspect=fixed;fontSize=14;fontStyle=1" parent="1" vertex="1">
          <mxGeometry x="670" y="3910" width="90" height="90" as="geometry" />
        </mxCell>
        <mxCell id="j4UsGMRyhZkNmxk-pElW-79" style="edgeStyle=orthogonalEdgeStyle;rounded=0;orthogonalLoop=1;jettySize=auto;html=1;entryX=0;entryY=0.5;entryDx=0;entryDy=0;fontSize=14;fontStyle=1" parent="1" source="2RKwz1BAJsP4RW_uo5MN-25" target="2RKwz1BAJsP4RW_uo5MN-23" edge="1">
          <mxGeometry relative="1" as="geometry">
            <Array as="points">
              <mxPoint x="520" y="3920" />
              <mxPoint x="650" y="3920" />
              <mxPoint x="650" y="3955" />
            </Array>
          </mxGeometry>
        </mxCell>
        <mxCell id="j4UsGMRyhZkNmxk-pElW-80" value="&lt;font style=&quot;font-size: 14px;&quot;&gt;info_formulir_lamaran&lt;/font&gt;" style="edgeLabel;html=1;align=center;verticalAlign=middle;resizable=0;points=[];fontSize=14;fontStyle=1" parent="j4UsGMRyhZkNmxk-pElW-79" vertex="1" connectable="0">
          <mxGeometry x="-0.1924" y="-3" relative="1" as="geometry">
            <mxPoint x="7" y="-3" as="offset" />
          </mxGeometry>
        </mxCell>
        <mxCell id="2RKwz1BAJsP4RW_uo5MN-25" value="&lt;font style=&quot;font-size: 14px;&quot;&gt;Formulir Lamaran&lt;/font&gt;" style="html=1;dashed=0;whitespace=wrap;shape=partialRectangle;right=0;left=0;fontSize=14;fontStyle=1" parent="1" vertex="1">
          <mxGeometry x="450" y="3940" width="100" height="30" as="geometry" />
        </mxCell>
        <mxCell id="j4UsGMRyhZkNmxk-pElW-56" value="&lt;span style=&quot;color: rgb(0, 0, 0); font-family: Helvetica; font-size: 14px; font-style: normal; font-variant-ligatures: normal; font-variant-caps: normal; letter-spacing: normal; orphans: 2; text-align: center; text-indent: 0px; text-transform: none; widows: 2; word-spacing: 0px; -webkit-text-stroke-width: 0px; background-color: rgb(255, 255, 255); text-decoration-thickness: initial; text-decoration-style: initial; text-decoration-color: initial; float: none; display: inline !important;&quot;&gt;info_pertanyaan&lt;/span&gt;" style="edgeStyle=orthogonalEdgeStyle;rounded=0;orthogonalLoop=1;jettySize=auto;html=1;jumpStyle=arc;fontSize=14;fontStyle=1" parent="1" source="9FF4zXoGLQPaVLQoBrba-1" edge="1">
          <mxGeometry x="0.5586" relative="1" as="geometry">
            <Array as="points">
              <mxPoint x="715" y="4190" />
              <mxPoint x="90" y="4190" />
            </Array>
            <mxPoint x="90" y="4070" as="targetPoint" />
            <mxPoint as="offset" />
          </mxGeometry>
        </mxCell>
        <mxCell id="j4UsGMRyhZkNmxk-pElW-58" value="&lt;span style=&quot;color: rgb(0, 0, 0); font-family: Helvetica; font-size: 14px; font-style: normal; font-variant-ligatures: normal; font-variant-caps: normal; letter-spacing: normal; orphans: 2; text-align: center; text-indent: 0px; text-transform: none; widows: 2; word-spacing: 0px; -webkit-text-stroke-width: 0px; background-color: rgb(255, 255, 255); text-decoration-thickness: initial; text-decoration-style: initial; text-decoration-color: initial; float: none; display: inline !important;&quot;&gt;info_pertanyaan&lt;/span&gt;" style="edgeStyle=orthogonalEdgeStyle;rounded=0;orthogonalLoop=1;jettySize=auto;html=1;entryX=0.25;entryY=1;entryDx=0;entryDy=0;fontSize=14;fontStyle=1" parent="1" source="9FF4zXoGLQPaVLQoBrba-1" target="2RKwz1BAJsP4RW_uo5MN-13" edge="1">
          <mxGeometry x="-0.1937" relative="1" as="geometry">
            <Array as="points">
              <mxPoint x="890" y="4100" />
            </Array>
            <mxPoint x="1" as="offset" />
          </mxGeometry>
        </mxCell>
        <mxCell id="9FF4zXoGLQPaVLQoBrba-1" value="&lt;div style=&quot;font-size: 14px;&quot;&gt;P.4.6&lt;/div&gt;&lt;div style=&quot;font-size: 14px;&quot;&gt;Tampil Pertanyaan&lt;/div&gt;" style="ellipse;whiteSpace=wrap;html=1;aspect=fixed;fontSize=14;fontStyle=1" parent="1" vertex="1">
          <mxGeometry x="670" y="4080" width="90" height="90" as="geometry" />
        </mxCell>
        <mxCell id="mDg-jPQaQmQIpjmxZmdx-6" value="data_pertanyaan" style="edgeStyle=orthogonalEdgeStyle;rounded=0;orthogonalLoop=1;jettySize=auto;html=1;entryX=0;entryY=0.5;entryDx=0;entryDy=0;fontSize=14;fontStyle=1" parent="1" source="9FF4zXoGLQPaVLQoBrba-2" target="9FF4zXoGLQPaVLQoBrba-5" edge="1">
          <mxGeometry relative="1" as="geometry">
            <Array as="points">
              <mxPoint x="360" y="4125" />
              <mxPoint x="360" y="4125" />
            </Array>
          </mxGeometry>
        </mxCell>
        <mxCell id="9FF4zXoGLQPaVLQoBrba-2" value="&lt;div style=&quot;font-size: 14px;&quot;&gt;P.4.5&lt;/div&gt;&lt;div style=&quot;font-size: 14px;&quot;&gt;Kelola Pertanyaan&lt;/div&gt;" style="ellipse;whiteSpace=wrap;html=1;aspect=fixed;fontSize=14;fontStyle=1" parent="1" vertex="1">
          <mxGeometry x="230" y="4080" width="90" height="90" as="geometry" />
        </mxCell>
        <mxCell id="mDg-jPQaQmQIpjmxZmdx-8" value="data_jawaban" style="edgeStyle=orthogonalEdgeStyle;rounded=0;orthogonalLoop=1;jettySize=auto;html=1;entryX=0;entryY=0.5;entryDx=0;entryDy=0;fontSize=14;fontStyle=1" parent="1" source="9FF4zXoGLQPaVLQoBrba-3" target="9FF4zXoGLQPaVLQoBrba-6" edge="1">
          <mxGeometry relative="1" as="geometry">
            <Array as="points">
              <mxPoint x="380" y="4275" />
              <mxPoint x="380" y="4275" />
            </Array>
          </mxGeometry>
        </mxCell>
        <mxCell id="9FF4zXoGLQPaVLQoBrba-3" value="&lt;div style=&quot;font-size: 14px;&quot;&gt;P.4.7&lt;/div&gt;&lt;div style=&quot;font-size: 14px;&quot;&gt;Kelola Jawaban&lt;/div&gt;" style="ellipse;whiteSpace=wrap;html=1;aspect=fixed;fontSize=14;fontStyle=1" parent="1" vertex="1">
          <mxGeometry x="230" y="4230" width="90" height="90" as="geometry" />
        </mxCell>
        <mxCell id="j4UsGMRyhZkNmxk-pElW-62" value="&lt;span style=&quot;color: rgb(0, 0, 0); font-family: Helvetica; font-size: 14px; font-style: normal; font-variant-ligatures: normal; font-variant-caps: normal; letter-spacing: normal; orphans: 2; text-align: center; text-indent: 0px; text-transform: none; widows: 2; word-spacing: 0px; -webkit-text-stroke-width: 0px; background-color: rgb(255, 255, 255); text-decoration-thickness: initial; text-decoration-style: initial; text-decoration-color: initial; float: none; display: inline !important;&quot;&gt;info_jawaban&lt;/span&gt;" style="edgeStyle=orthogonalEdgeStyle;rounded=0;orthogonalLoop=1;jettySize=auto;html=1;entryX=0.25;entryY=1;entryDx=0;entryDy=0;jumpStyle=arc;fontSize=14;fontStyle=1" parent="1" source="9FF4zXoGLQPaVLQoBrba-4" target="2RKwz1BAJsP4RW_uo5MN-10" edge="1">
          <mxGeometry x="0.2924" relative="1" as="geometry">
            <Array as="points">
              <mxPoint x="690" y="4340" />
              <mxPoint x="50" y="4340" />
            </Array>
            <mxPoint as="offset" />
          </mxGeometry>
        </mxCell>
        <mxCell id="j4UsGMRyhZkNmxk-pElW-68" value="&lt;span style=&quot;color: rgb(0, 0, 0); font-family: Helvetica; font-size: 14px; font-style: normal; font-variant-ligatures: normal; font-variant-caps: normal; letter-spacing: normal; orphans: 2; text-align: center; text-indent: 0px; text-transform: none; widows: 2; word-spacing: 0px; -webkit-text-stroke-width: 0px; background-color: rgb(255, 255, 255); text-decoration-thickness: initial; text-decoration-style: initial; text-decoration-color: initial; float: none; display: inline !important;&quot;&gt;info_jawaban&lt;/span&gt;" style="edgeStyle=orthogonalEdgeStyle;rounded=0;orthogonalLoop=1;jettySize=auto;html=1;fontSize=14;entryX=1.018;entryY=0.333;entryDx=0;entryDy=0;entryPerimeter=0;fontStyle=1" parent="1" source="9FF4zXoGLQPaVLQoBrba-4" target="2RKwz1BAJsP4RW_uo5MN-7" edge="1">
          <mxGeometry x="0.1761" relative="1" as="geometry">
            <mxPoint x="580" y="4440" as="targetPoint" />
            <Array as="points">
              <mxPoint x="740" y="4380" />
            </Array>
            <mxPoint as="offset" />
          </mxGeometry>
        </mxCell>
        <mxCell id="j4UsGMRyhZkNmxk-pElW-73" value="&lt;span style=&quot;color: rgb(0, 0, 0); font-family: Helvetica; font-size: 14px; font-style: normal; font-variant-ligatures: normal; font-variant-caps: normal; letter-spacing: normal; orphans: 2; text-align: center; text-indent: 0px; text-transform: none; widows: 2; word-spacing: 0px; -webkit-text-stroke-width: 0px; background-color: rgb(255, 255, 255); text-decoration-thickness: initial; text-decoration-style: initial; text-decoration-color: initial; float: none; display: inline !important;&quot;&gt;info_jawaban&lt;/span&gt;" style="edgeStyle=orthogonalEdgeStyle;rounded=0;orthogonalLoop=1;jettySize=auto;html=1;entryX=0.824;entryY=1.014;entryDx=0;entryDy=0;entryPerimeter=0;fontSize=14;fontStyle=1" parent="1" source="9FF4zXoGLQPaVLQoBrba-4" target="2RKwz1BAJsP4RW_uo5MN-13" edge="1">
          <mxGeometry x="-0.1067" relative="1" as="geometry">
            <mxPoint as="offset" />
          </mxGeometry>
        </mxCell>
        <mxCell id="9FF4zXoGLQPaVLQoBrba-4" value="&lt;div style=&quot;font-size: 14px;&quot;&gt;P.4.8&lt;/div&gt;&lt;div style=&quot;font-size: 14px;&quot;&gt;Tampil Jawaban&lt;/div&gt;" style="ellipse;whiteSpace=wrap;html=1;aspect=fixed;fontSize=14;fontStyle=1" parent="1" vertex="1">
          <mxGeometry x="670" y="4230" width="90" height="90" as="geometry" />
        </mxCell>
        <mxCell id="mDg-jPQaQmQIpjmxZmdx-7" value="info_pertanyaan" style="edgeStyle=orthogonalEdgeStyle;rounded=0;orthogonalLoop=1;jettySize=auto;html=1;fontSize=14;fontStyle=1" parent="1" source="9FF4zXoGLQPaVLQoBrba-5" target="9FF4zXoGLQPaVLQoBrba-1" edge="1">
          <mxGeometry relative="1" as="geometry" />
        </mxCell>
        <mxCell id="9FF4zXoGLQPaVLQoBrba-5" value="Pertanyaann" style="html=1;dashed=0;whitespace=wrap;shape=partialRectangle;right=0;left=0;fontSize=14;fontStyle=1" parent="1" vertex="1">
          <mxGeometry x="450" y="4110" width="100" height="30" as="geometry" />
        </mxCell>
        <mxCell id="mDg-jPQaQmQIpjmxZmdx-9" value="info_jawaban" style="edgeStyle=orthogonalEdgeStyle;rounded=0;orthogonalLoop=1;jettySize=auto;html=1;entryX=0;entryY=0.5;entryDx=0;entryDy=0;fontSize=14;fontStyle=1" parent="1" source="9FF4zXoGLQPaVLQoBrba-6" target="9FF4zXoGLQPaVLQoBrba-4" edge="1">
          <mxGeometry x="-0.2144" relative="1" as="geometry">
            <mxPoint x="700" y="4270" as="targetPoint" />
            <Array as="points" />
            <mxPoint as="offset" />
          </mxGeometry>
        </mxCell>
        <mxCell id="9FF4zXoGLQPaVLQoBrba-6" value="Jawaban" style="html=1;dashed=0;whitespace=wrap;shape=partialRectangle;right=0;left=0;fontSize=14;fontStyle=1" parent="1" vertex="1">
          <mxGeometry x="450" y="4260" width="100" height="30" as="geometry" />
        </mxCell>
        <mxCell id="j4UsGMRyhZkNmxk-pElW-74" value="&lt;span style=&quot;color: rgb(0, 0, 0); font-family: Helvetica; font-size: 14px; font-style: normal; font-variant-ligatures: normal; font-variant-caps: normal; letter-spacing: normal; orphans: 2; text-align: center; text-indent: 0px; text-transform: none; widows: 2; word-spacing: 0px; -webkit-text-stroke-width: 0px; background-color: rgb(255, 255, 255); text-decoration-thickness: initial; text-decoration-style: initial; text-decoration-color: initial; float: none; display: inline !important;&quot;&gt;info_pertanyaan&lt;/span&gt;" style="edgeStyle=orthogonalEdgeStyle;rounded=0;orthogonalLoop=1;jettySize=auto;html=1;entryX=1;entryY=0.75;entryDx=0;entryDy=0;jumpStyle=arc;fontSize=14;fontStyle=1" parent="1" source="9FF4zXoGLQPaVLQoBrba-1" target="2RKwz1BAJsP4RW_uo5MN-7" edge="1">
          <mxGeometry x="0.6445" relative="1" as="geometry">
            <Array as="points">
              <mxPoint x="890" y="4140" />
              <mxPoint x="890" y="4405" />
            </Array>
            <mxPoint as="offset" />
          </mxGeometry>
        </mxCell>
      </root>
    </mxGraphModel>
  </diagram>
  <diagram id="3GxhemXyI0LVaUsAQuHD" name="DFD P.5">
    <mxGraphModel dx="1050" dy="-1659" grid="1" gridSize="10" guides="1" tooltips="1" connect="1" arrows="1" fold="1" page="1" pageScale="1" pageWidth="850" pageHeight="1100" math="0" shadow="0">
      <root>
        <mxCell id="0" />
        <mxCell id="1" parent="0" />
        <mxCell id="WZwpl9yihYmplnkWmSHS-18" value="data_user" style="edgeStyle=orthogonalEdgeStyle;rounded=0;orthogonalLoop=1;jettySize=auto;html=1;entryX=0.5;entryY=0;entryDx=0;entryDy=0;" parent="1" source="WZwpl9yihYmplnkWmSHS-3" target="WZwpl9yihYmplnkWmSHS-5" edge="1">
          <mxGeometry relative="1" as="geometry" />
        </mxCell>
        <mxCell id="WZwpl9yihYmplnkWmSHS-3" value="&lt;div&gt;P.2.1&lt;/div&gt;&lt;div&gt;Kelola Data&lt;/div&gt;&lt;div&gt;&amp;nbsp;User&lt;br&gt;&lt;/div&gt;" style="ellipse;whiteSpace=wrap;html=1;aspect=fixed;" parent="1" vertex="1">
          <mxGeometry x="370" y="2410" width="90" height="90" as="geometry" />
        </mxCell>
        <mxCell id="WZwpl9yihYmplnkWmSHS-4" value="info_data_user" style="edgeStyle=orthogonalEdgeStyle;rounded=0;orthogonalLoop=1;jettySize=auto;html=1;" parent="1" source="WZwpl9yihYmplnkWmSHS-5" target="WZwpl9yihYmplnkWmSHS-15" edge="1">
          <mxGeometry x="0.0969" relative="1" as="geometry">
            <Array as="points">
              <mxPoint x="580" y="2565" />
            </Array>
            <mxPoint as="offset" />
          </mxGeometry>
        </mxCell>
        <mxCell id="WZwpl9yihYmplnkWmSHS-5" value="User" style="html=1;dashed=0;whitespace=wrap;shape=partialRectangle;right=0;left=0;" parent="1" vertex="1">
          <mxGeometry x="530" y="2500" width="100" height="30" as="geometry" />
        </mxCell>
        <mxCell id="WZwpl9yihYmplnkWmSHS-19" value="data_user" style="edgeStyle=orthogonalEdgeStyle;rounded=0;orthogonalLoop=1;jettySize=auto;html=1;" parent="1" source="WZwpl9yihYmplnkWmSHS-9" target="WZwpl9yihYmplnkWmSHS-3" edge="1">
          <mxGeometry relative="1" as="geometry">
            <Array as="points">
              <mxPoint x="200" y="2440" />
            </Array>
          </mxGeometry>
        </mxCell>
        <mxCell id="WZwpl9yihYmplnkWmSHS-9" value="SUPER USER" style="rounded=0;whiteSpace=wrap;html=1;" parent="1" vertex="1">
          <mxGeometry x="150" y="2480" width="120" height="60" as="geometry" />
        </mxCell>
        <mxCell id="WZwpl9yihYmplnkWmSHS-20" value="info_data_user" style="edgeStyle=orthogonalEdgeStyle;rounded=0;orthogonalLoop=1;jettySize=auto;html=1;entryX=0.5;entryY=1;entryDx=0;entryDy=0;" parent="1" source="WZwpl9yihYmplnkWmSHS-15" target="WZwpl9yihYmplnkWmSHS-9" edge="1">
          <mxGeometry relative="1" as="geometry" />
        </mxCell>
        <mxCell id="WZwpl9yihYmplnkWmSHS-15" value="&lt;div&gt;P.2.2&lt;/div&gt;&lt;div&gt;Tampil Info&lt;/div&gt;&lt;div&gt;User&lt;br&gt;&lt;/div&gt;" style="ellipse;whiteSpace=wrap;html=1;aspect=fixed;" parent="1" vertex="1">
          <mxGeometry x="370" y="2530" width="90" height="90" as="geometry" />
        </mxCell>
      </root>
    </mxGraphModel>
  </diagram>
</mxfile>
